/* XPM */
static char *result[] = {
/* columns rows colors chars-per-pixel */
"80 80 93 2 ",
"   c #0A4A02",
".  c #124C05",
"X  c #194E07",
"o  c #0E5202",
"O  c #0F5E02",
"+  c #135404",
"@  c #1A5506",
"#  c #155C04",
"$  c #1A5D06",
"%  c #165709",
"&  c #1B550C",
"*  c #165B09",
"=  c #1B5C0A",
"-  c #215D0B",
";  c #235F12",
":  c #295F13",
">  c #166204",
",  c #1B6405",
"<  c #176903",
"1  c #1C6B06",
"2  c #176308",
"3  c #1C640A",
"4  c #1E6B0A",
"5  c #1E7105",
"6  c #1E720A",
"7  c #1F6611",
"8  c #216406",
"9  c #216B06",
"0  c #22650C",
"q  c #2A670D",
"w  c #226C0C",
"e  c #296C0D",
"r  c #227306",
"t  c #247A07",
"y  c #24730C",
"u  c #29750E",
"i  c #257A0C",
"p  c #2A7B0E",
"a  c #30760E",
"s  c #317C0F",
"d  c #246412",
"f  c #296416",
"g  c #256D11",
"h  c #2A6D12",
"j  c #2F631B",
"k  c #2D6C19",
"l  c #336D14",
"z  c #267311",
"x  c #2B7412",
"c  c #267A11",
"v  c #2C7B13",
"b  c #2D751A",
"n  c #2E7B19",
"m  c #317615",
"M  c #327C15",
"N  c #32761A",
"B  c #3D741A",
"V  c #337D1A",
"C  c #3A7D1C",
"Z  c #357421",
"A  c #367C21",
"S  c #387921",
"D  c #407F1F",
"F  c #26810D",
"G  c #2B820E",
"H  c #2E880F",
"J  c #30840E",
"K  c #268111",
"L  c #2D8213",
"P  c #2E8A12",
"I  c #2E8318",
"U  c #328315",
"Y  c #388316",
"T  c #338A15",
"R  c #398817",
"E  c #34831A",
"W  c #3A851B",
"Q  c #358B1A",
"!  c #3B8A1C",
"~  c #3C941C",
"^  c #368323",
"/  c #3A8521",
"(  c #368B20",
")  c #3C8A22",
"_  c #3C9322",
"`  c #41801C",
"'  c #418A1E",
"]  c #448520",
"[  c #418C25",
"{  c #438729",
"}  c #508723",
"|  c #439523",
" . c #459728",
/* pixels */
"[ v y b W I E b b K z c 4 v V x m V L v h n T x w y 4 g S x z V z v ! v x W C x x i x v E U v y c M M x v c G V K p R i c M w t 3 R E - L w x v V C W V w M w u ",
"y 1 z c v V x x v c z E 3 E y c v z b c n y x z z x x / v v c U v z z N T z x c e W h z z y z y x v V x p v x v v E u v v y T u x M w p y v i V i b x w w x y r ",
"6 W L z x T x L E v w v z n w c z V g m b x v z v m g z x v y ) 4 h z V c V y x c c y y I u z z E T v M x c v w v y R z g z V T L E v n u u v v x u M v v e g y ",
"E x L x E v n L v y M x L x w w Q n z c g c z x c c E z v i x v I z n n U c x w z z g E v V y y c z x U v w 4 y 4 z x r c V v M p g z v c x g p v u m p m z E x ",
"L v 4 c v v c z V z v i E I v w c x V E L c n x v y z c y 4 u v w x j c y x V n N z v g g z 0 c V y y v V y c / x y x 1 c N L y L i 4 x V A v z u y R m ! c b M ",
"L y z 4 z c z v x v 3 w y , w M z v c 4 w c x u y U I y x v I i z v w w M v v z I b z b g c y z x m w 6 z 3 z b 3 z x y w U y W p p v U w V y 1 c 0 y U v 0 V V ",
"y 4 3 z 7 # g g c c z v h 0 v L g y L x v I U c g L u y L N z z ( L E z g c b v b c E x x w z w v v y c i w v w y m d C z 1 i c V y R x z g g 6 M V p c W m M V ",
"3 z 4 4 I 6 y L z p z z g P r z u K c y i i z 6 v x L z v p c Q x c y y n g d z c b 2 z c y x x v 0 v b x y 4 v N w x h x x c w 0 z @ h x x V z z L w r u w u c ",
"z 3 4 z y y y c y c x c v L x y w c z g w c g g z y v M t w n 0 b c L v c E w b h 4 4 x v p ! w < 3 y 3 4 w i 4 z x 3 x V B h V x x u m y x 0 y w 4 x w c w h , ",
"6 < y 6 y c n 6 c p 1 z c L v 3 i c v x z z c n M p z ! y H Q c n w b x h x w n v i p z y y M x y L z 4 3 w 4 = x g z x V E d m N E 0 3 y v 4 y x 6 y T y x u C ",
"c z T w y i i L v u L r g v Q z V I r L p y w V v v c p v x I z K W c v z v v L c p v V i c c ! x x g x x L w w 0 w u 3 u S 0 q w x g 3 L y E c u c v y v m N C ",
"V 4 , v c c c i t r F 3 p G 6 I y c v c w L y c i p u c x d z B g z 1 h 1 3 w i 4 i n , 3 6 y c v L v y 4 N G m w x u W x V p V M 1 y G y m 4 y v y v y M 9 x C ",
"I 3 y y K p i t r , c y < y w T t p 3 L y 4 L t v v x p c c _ 4 y T 4 L z g c i c v w w h 4 y c 5 4 V y w z c z V 0 c U v r M x x L U V v V h 3 w L x v w / M p ",
"4 < z 4 r L F 6 y x U i K v K p p c U v y i L I v 4 i 6 > y y n y 4 g w 6 y 6 w z x t y U w v = $ y 4 y 3 w y x w y x x U y v w x x i Y p v w v K C c p 1 M V y ",
"x P y y r 6 w Y z i x i x i 9 p c G 6 i p x p i G L i i y 6 K r 1 2 4 E w v i 4 i w x w N i v g x v n m p x N v x z r L 2 y z y w ) p e c v > i 6 6 p w E U s w ",
"y i 6 I w T c Q K c c U y I T E y i i 3 c i 6 T M c y i L v L c c y 3 h x w x v v y y x 9 , * W L P y x c c 6 1 n x w y i + I y G v 4 p y p i 1 x 4 y y 3 w w % ",
"i 3 v 4 4 i L w u V p F T c m y p R F R u T 1 p w w t m u , y 4 x U 4 e x g M n ! v y w , y t y v , 1 1 L x $ 1 4 z u y F r u Q U ( w J v y L r 6 c 6 4 % w * w ",
"m 3 w c 1 4 I P y g x z c y c K v w c i i r T i p w U x M w c r 1 c w m u i x n E z x U v M x Q b z y V u n y x v y G G u G M G y E c U E r 1 z V y 4 z 3 y w Q ",
"P c y 6 4 p i 4 6 3 c u y E x T w u 3 r u 1 v x u y v x p x Y x x e Y k M 0 y z z T z c x w c 0 h e N W , y q y M t i 4 w Q < w 3 K < y c 3 6 3 z w w 3 v v 4 w ",
"6 + 2 v y v c r v Y , t Q i x u < y 1 i t y y x 0 1 E 4 x w F e _ i V w 0 v $ r p p 1 x 6 C w v y 5 y z T i 4 p 4 G y p r y Y p z U M y y v * 0 z z 4 d 3 0 y e ",
"1 y b , y x v r c h y 3 w K z x y w y ! v y v y 4 1 v i n x y I c $ y 4 m Y C 4 r 6 i z d z w y r M w G c v i y u v L T , 6 I U y w 1 w 4 i w y = 4 - y 4 3 v m ",
"y x , p w w K y 2 4 u 4 R p E u y / v M x x w E y b w v K w v 6 v g w x 0 c p , = z z 6 # , x x > i p R y T U Y w t T P i 2 i t p v v z n x 1 0 y z h h h y < w ",
"y x S w N 4 , , 4 L c t 0 6 v x x x v r w E v x 4 4 z z y = V g z y C M 8 E y i w 4 z w g m , p m R Y ! U W ) c H v p L p v G W 0 9 , V W I v v W y x h 6 u x d ",
"C c y N y w r v L R T T m v M E U x y 3 v y u x 4 M v ! V L e 4 c v i 3 c w x 4 3 x 4 z d z / ' L p 1 G w y y w p u < L , p ! c y U g i F 1 x c z w y y y 4 z m ",
"Q L w M M t 4 U a R L c g w Y 3 w c p v G e K w R y 4 f h g y K T z p , 1 w x x C M y w y w v M s 4 = E y W z m E V c y y H v H y t < x 3 h e 1 y r v 4 v v w y ",
"t p 9 y x c G y p u M 8 Y p y n M 1 R r y c w r 5 2 3 z Q M w y V v i s T w M x m x 9 U e N ! N V w u M v M J y p v i i p W 4 6 s 0 e v w N , w m w w < > v y z ",
"y d u V e = 4 p > y c 9 Q 9 w v _ U b x ! x { 3 3 w 4 c x M r 4 E p p U p r 0 0 K v v y u L T x p i G M z p y u r W u M y w 4 1 y w W W w 3 4 w > = x g 3 4 v > ",
"0 Q c w e M , y s M c 1 3 c T G L 1 y E g v G g c r w v w y y L v p p p y M p y y x v u r i L E i u u x Q g p w w v v c i v H L y c N 3 w w c y l 3 w 3 6 ^ . p ",
"u M y x - 9 , i 1 y r L T = w y E M u u p u v L L L U x M U w M y v w 1 u h U y v p 1 U L H G , 5 L T p c y , y 9 G v U w y c x c U v u x * 4 z v g $ 3 $ v y x ",
"w 3 y $ p y < y y w z y y c / z p T v t y x 6 1 y y g T y p , i p y t Q c c y G x L y 3 1 y 1 r i , E M 1 M w w # w y Y 1 , L i < y + # 3 g 4 3 & d z c y u 1 w ",
"y U u L L { w 9 4 i 9 V w x c t L e t T w 5 < 6 3 w U I U 6 M p M y v y ; M z V Y t m ^ x 0 y 8 y t v p P t p L w , y > M w 1 G 4 I 4 g , O 4 g i 3 3 v u y v y ",
"y J R v r p C P 1 v r 0 z U ! i G I T c < u 5 r z 3 r n w y L i 6 i $ # = 6 , g < v 4 i w 3 4 t ' x ! w 4 y x y p y w , p U 0 m i > d = v 3 1 1 w 4 w 3 i d > 2 ",
"0 w g 1 t y , r , < w 9 G G u x G 5 K c $ c 4 z p i y G p p i , d 1 4 > w , c v d y Y 6 G < = I 1 # p U T g r u / y p u G p w y i k w + 4 g 4 < v 3 u , % 1 w   ",
"M y e 9 $ 5 v t W Y 5 Y 0 w # c 6 4 6 o 1 6 < u * t 2 6 p r N y , w w W x U R u 4 y $ y , , i y U U < y z  .x y p d p w r i _ c w , x y : 4 = x d 0 x z u y 3 i ",
"1 = 8 p y y v v T t p 2 K 9 Y M P < = z w , v t < w 6 d < p 1 W i p p E J L 4 $ p p y U y e r y   9 t 1 i N x i 3 p 4 w 4 T Q y 1 w z g , $ , w x $ w w @ h 1 3 ",
"; u p 8 t T u 4 p t u u u ! c e % g w v 9 I 6 r i 4 $ u u y n L + , E w p u w r G w v p x y z 7 r v L y 5 w 4 o v w 4 % 1 + V R w x z z 0 # & 3 y 3 = y x y w w ",
", ~ p p y G C r < m a U U Y t U P t L 0 4 p t r , 4 1 y 1 E 9 9 < T 3 y y 4 N M 3 9 < U p G , > * i c 1 5 E i w p F c 3 , 3 x y $ 1 3 ) , u g @ 4 4 $ , 4 p 1 V ",
"e p w p u r y p y p G U x p q w , I v y 1 u 4 E i 3 y 6 , ! e 3 v M + p C t w , L y r t 4 E y u 6 4 , R Q < 6 $ z u V c y = @ Q u u U y u w u 8 $ N a = x M e p ",
"4 u X u 3 r y T p 4 1 U > L > y 5 E v x - m 5 G y w y G 3 w $ u q ~ i p v c v 3 u p 1 w 9 T Y ! Q , V y + , w 3 w 1 d 3 n 0 c W i c , w $ v E p - w v v 4 T p M ",
"M x t v y 6 6 t < @ y $ p p 9 W v i i ! $ M r e u x t c # > ! W y x 0 u u v i 3 e y 1 v U t , G T v P z Q M v r x , c i 4 4 i z 0 w x , e % v y V u e 1 t t v 9 ",
"9 x w 3 3 4 > u $ 0 p $ y u u 5 y M u U $ , Q 8 y , u - t 9 / 8 v e I p G u p y 9 p p y y 4 G y y y v i r x L h > w $ > # p 3 , & y w > , . y 3 r > w w 9 , w 3 ",
"w < 3 1 t > p y u y y # < y , > 1 9 y 8 0 L v . x y @ u p 9 u p x , 9 9 r G U y p v G y 9 y t # 1 z E 4 W < i z 0 p u M w r y = # y v 0 : u C $ $ w M e , o 4 v ",
"u y , , p 1 < , E m y z p & w v w w 3 M 0 u W v W e R 0 8 1 q u c e , 8 p > 6 M w v G u 3 y , 9 r v y 3 T > K 3 0 > 3 U @ 3 w x m p $ w x x y w , m < e w y r 6 ",
"D J $ , y , 6 8 $ r 1 q y , 0 3 z y b c T v ' 1 R t 1 w y 1 , u E v 8 p y U 0 1 y H 4 M v p U v h x z 4 3 N i q V 1 4 t w U 1 y g , x # g - 3 y 9 $ 9 N 9 w 1 R ",
"y # 5 y , 4 p w , f > = x . k 1 , 9 9 y 9 U u 1 ' 9 R p , z L x v U t , L w L y R y i Q > 4 J p v 0 $ U $ v h w y v c I $ n w 7 c x w g w 4 x 0 9 y e y y , 9 e ",
"0 m p x h 6 x w p Q y 4 r , ' 1 , u T w u m y U u 0 R x c - z T y Q 4 u E i p r y t H r , # = v h 9 y z z 6 y 3 = 0 x # 3 V U w z , 3 w 3 q / e u u e e ` y p 8 ",
"s r 3 p , x m 8 - 3 y x . 8 y o > U 3 i 3 x < [ y 1 0 # 4 l = + , y 3 L E 4 9 p c y p y 1 y T p , 4 T c 9 z w 4 y w K , 4 4 4 g 7 6 $ 3 h E v u , 1 x 3 + > p y ",
"p > 3 w q , v 0 5 y U w c z i x , U < 0 4 x v i 4 p w g u 4 v i R p 3 g 3 $ y C c r 9 t p e G J E y z r $ w w y 1 , z 3 z 7 4 * c b 4 y d g x y 3 , v v $ c w x ",
"9 0 v h y 1 y y h x y w 1 y q | c g 3 x 3 y i 1 i t , b W i c # i 4 Y U y 3 , w u y u , v c U e 4 p , e w c y L , 4 p c 1 4 3 w * # $ 1 1 y 1 3 > M m w 4 v w r ",
". w > , + 3 y w h q p p p x 3 T ! i * < c $ 6 + p z x , w z w $ v n N g s 4 w w w 0 e w , $ n c # w t y , 0 v v c v L L K 1 x y 3 i i w x y x # c w + > + z L 1 ",
"h $ w 6 y w V x m h L b s u v 9 < 5 5 < r T c y z i 3 4 t 1 i 9 v w w > 0 V y 3 1 * 3 u w 1 Y U n m $ 4 y V 4 1 0 q p M i 5 r w y % 0 p v i v 3 . t 1 w * 4 0 y ",
"l 3 w h z u 0 4 h w U m y $ 1 T 5 1 < r y o R w w y 6 L 6 y i c L i 4 w 4 i | q c z w 1 M r y c > x x y w z y M c x c W p U r g M E = , y y F y x v p w < # y v ",
"M v 2 d w M & p p M U x h v < 5 4 p t F y 5 6 > 4 w y L U y Q t L U 6 o W U y p i c L d w , y E u w v 4 > E w 0 x v y w y y 8 , $ c w h i y w x u y 4 4 t , 0 v ",
"w y y = c w , , 4 y u h x W v L Q p c r G 4 i 6 1 F y u x y c G p v 6 c w G L p L r U v $ ! w 1 y t w c 4 4 w y , 1 y w x 1 6 i 0 r 3 3 4 4 1 U u 0 V t y 4 w i ",
"y p p y y w y W M x r z i 0 p c w c z G r y x z p h z u p s E h y v v r v 3 v T M p r 9 y p , r t # x v 6 x x 9 0 r $ e w 4 4 4 v M = w 2 5 4 v g c i 6 v r r u ",
"M M N v p v M m 3 t 0 r u r p U y v v v u w w c 6 x ) w d t r = c 4 1 P T U J p v G U C u y r y J w E 9 e y w 6 y x 3 t u t p u = 1 v x v , y y T y w 4 t 1 E x ",
"x v 3 x 0 u 0 u w c y c t t R v y v ) w N y T y x z w y 9 i y w c x w L H u v G 1 u x E x 1 p U U 4 1 y z f v z w x M , w t w T v U g [ + 3 c U c y i x , $ 9 # ",
"$ m y 3 W U y y i y W 9 y 5 T P x u y w p v g 4 = g 6 C i 1 t i r x U c y u p p L v r z S x v x 1 p y z W y y 0 V y z 0 y 2 i 3 M 4 e g x z z , x z 4 6 , # 1 p ",
"c y R 4 c x v v u 9 w 9 # p u y v v v m U w y v y c c V W W e y v 0 M x p M M w z R e U M b V , d M v 3 h f y y c c v m O c i c # z < 6 3 % i v c y H 6 u u y y ",
"^ 9 , , w U 4 v W e v p u v G M r u m x Q g u y M w z E w v , 1 r Q y w u h E U w W L y w M / m 4 J W p M G ! y z v 3 c g 5 U y v r ' r L w / V y i U Y M x W p ",
"} 3 N 0 x y M c G E w 3 M R z 0 U c y = V z z L 3 x z N 3 E w u z % T z t M 4 x u y x z y y M x M U p w U u G N V R w i 6 t 4 > T U E L p t y w v 4 6 C T 0 u y ",
"E v u 9 % x M 3 w 4 4 y w p E 4 w x c G L c y d v E v m g 4 b # z v 1 h w x y p x L x g g u t L V ! R [ p U w c i x y T 6 5 y E x w [ L Q y p T U L W r M V L 1 ",
"y 4 v y w 6 v y w x i u y 4 z c p 0 c m x = V g v V z V c 0 z w y z V = 1 w r R y t T 6 c r v y p y r 3 W G U I w v U t r 3 ( c c 8 3 y T p v i i u x i v c T M ",
"i o y P t w p y < i U x w y m E 1 3 w z t u y v , c V y v w i 0 y 3 g 3 L w U c K p y t y H g y r 3 1 G E 0 G i ! y c , 1 i T U L u y t p s p L v 4 V r L u v c ",
"c w i v w V T 4 c w * c v v w r L y c w M p v y m r v u u x 1 L v u z x w u T i y r c 5 F V y p y v p 3 E x i p p u c x K y p Q y w c u L t m x z ( 4 4 y 4 4 y ",
"K y t 1 4 r 1 y 4 i y y y M E e v T w v 4 0 p x e w m E x e W q M M p v W v u v y p W v u G L x ! w u 0 p p c b M K y u p w y 9 m 1 v L i y i t F 1 3 4 y 0 y c ",
"U u 4 T L 4 v n 3 i x V ! z T v x R F u 1 u 9 v w K u x M y z w i p M Y g D p p E p M 3 1 u p x c 1 E p , G y e u 0 B v u 9 x u z w Q y y x v i x y r G 4 c w Y ",
"p v t c y z P i u R L c u F 6 y p 4 L i y x c c 4 y , < 6 6 z 2 w y w y x R W E [ U t i u y p U u p p y n r 2 y p w c x 3 0 c v w f , w p p 1 1 c G E y < u 5 6 ",
"c 6 v p v U U v c g x z z W c x i T i 1 x y 6 i y b c 1 y n y 2 v I P 4 y p w y p M R W c y 9 x U c z u g i 1 P y x x 4 y E y c 1 y 0 x w i , c , r 5 v 6 i w y ",
", H r p c r c i 4 4 y v L 4 < 1 T i 4 p E u 1 p c 6 w w y 4 y y V 1 p y w 6 i i u p c r Q c T M 1 U 3 c y x z U w y c i x z A y u y 9 w y v $ g G y p L T y E Q ",
"$ y c y y v r c i w g y y y i y i T i x c U v p c v T y c p g n p v c y i r y , v R V R p y , 9 3 5 z w 6 v c i c y m z p u T M v U s u G J v M a y u u y p v v ",
"t c n u x c 1 6 y p > 4 6 i 6 c c 4 x ^ x t z K z g h c Q c x c y y u g v y T i v p g 6 L y c c i z w T u R t y x M v n W t x c x 0 u 1 x C x 3 U p ! M V y u 9 ",
"y 1 6 v w y z i F t x 6 3 U x n v i z c 4 z c z c b L y x v v x M L U b p i p y u p L p v c Q U g k x z R 4 y h U E w W ' ] u ' V x U V m x p G V p v M T x m M ",
"4 y z v u x w z E v L z c v A L L x y g y c v V z v w v ) / c w w w n z 3 c I L v T Q R W G x 4 L v M u v g v y v p v w w h f s w u N y x v c m M M U v M x x e ",
"K % 4 < z y E L r c i I x y I c 6 y v E x n v I n v z z w M T L h w c I K v v c y M v v T i 3 L y y c L v w z x w z v M M W ! M f c v z x c y y 3 x M M x W V x ",
"v r x 3 i z v u c z v K w y c x z K z 4 4 4 z = z y c v 4 c x y { v v ^ K v x c z z L y 3 E ) w c 1 n 1 ! w v w x x w C 3 W q v 0 P M x q p 4 3 v h 0 0 y x z Y ",
"v y c c c y v w c K i y M x y x w z g y c v y v x x x g y c m n ( b y v g y z M E I z y c v g T U T p y v v w y Y x 0 u m i % y W y $ p y g m V p V w v w u v x ",
"E 4 2 4 z g w x w c v 3 g y y V 6 c z n 4 z x g 1 z u x w g E 4 h v c v ^ v x c M v z x c I U v U T G y x v v T R x ! c U p V M u p E x v z w y u V n 4 L x u c ",
"g y L c v U z c E i g w 1 c c Z x v c y w v z c y w c x 4 g c n w x 0 E y v c V v v Q V / V L Q y v v E T 6 6 E y L z 4 x c # L E G y y y y x 0 n u v w U N v ! ",
"T c K T E x V ) v c c I W y L w z z y x V y c 6 z v z z x z v x 3 g h v z p E U V V x v y x 4 v z c v v E z y E z R v y y g 6 w T U v 4 U E E x v v z p w z y h "
};
