/* XPM */
static char *result[] = {
/* columns rows colors chars-per-pixel */
"80 80 185 2 ",
"   c #353F33",
".  c #393C3B",
"X  c #165606",
"o  c #165D06",
"O  c #195D07",
"+  c #1C5D09",
"@  c #245D13",
"#  c #2B5B1A",
"$  c #2C5C1B",
"%  c #345D1D",
"&  c #176206",
"*  c #1C6507",
"=  c #1D6B07",
"-  c #176108",
";  c #1D650A",
":  c #1E6B0A",
">  c #1F7106",
",  c #1F710A",
"<  c #206C07",
"1  c #21660B",
"2  c #226D0C",
"3  c #296E0E",
"4  c #217207",
"5  c #237907",
"6  c #24730D",
"7  c #29750E",
"8  c #26790D",
"9  c #297A0E",
"0  c #236312",
"q  c #296416",
"w  c #256D11",
"e  c #2A6D13",
"r  c #2C621B",
"t  c #306B11",
"y  c #35641C",
"u  c #3A611E",
"i  c #316E1B",
"p  c #267411",
"a  c #2A7512",
"s  c #277911",
"d  c #2C7B12",
"f  c #2E7719",
"g  c #2E7B18",
"h  c #317515",
"j  c #317C15",
"k  c #397C16",
"l  c #32751A",
"z  c #327D19",
"x  c #387C1B",
"c  c #2F4E26",
"v  c #3C4D27",
"b  c #32442F",
"n  c #334A2D",
"m  c #2D5223",
"M  c #325424",
"N  c #325C24",
"B  c #3C5C22",
"V  c #385528",
"C  c #334231",
"Z  c #3A4636",
"A  c #364B31",
"S  c #3D4934",
"D  c #3B443B",
"F  c #3E6322",
"G  c #3B632D",
"H  c #414F26",
"J  c #435D25",
"K  c #4B542E",
"L  c #465929",
"P  c #4A5B2B",
"I  c #515D2B",
"U  c #5B5A2F",
"Y  c #494732",
"T  c #44433B",
"R  c #59493B",
"E  c #5C4B39",
"W  c #4C5638",
"Q  c #555634",
"!  c #6A4B3E",
"~  c #754D3C",
"^  c #625434",
"/  c #685737",
"(  c #625D35",
")  c #705736",
"_  c #76523E",
"`  c #7B513D",
"'  c #476328",
"]  c #52602D",
"[  c #426633",
"{  c #76653B",
"}  c #7C663F",
"|  c #413E40",
" . c #3F4441",
".. c #434345",
"X. c #4A4341",
"o. c #444549",
"O. c #47484C",
"+. c #48494D",
"@. c #514641",
"#. c #544944",
"$. c #5C4C43",
"%. c #745744",
"&. c #745847",
"*. c #7C5B44",
"=. c #7A5A59",
"-. c #4C6440",
";. c #527242",
":. c #646854",
">. c #84553E",
",. c #8A573F",
"<. c #8B5A3E",
"1. c #925D3F",
"2. c #80683E",
"3. c #825641",
"4. c #8B5640",
"5. c #855A42",
"6. c #8C5B42",
"7. c #945A40",
"8. c #9B5D41",
"9. c #866543",
"0. c #8B6246",
"q. c #8B6845",
"w. c #8D644A",
"e. c #936F44",
"r. c #936649",
"t. c #97684A",
"y. c #9B6B4B",
"u. c #9C7248",
"i. c #866858",
"p. c #966855",
"a. c #94745B",
"s. c #A66143",
"d. c #AB6343",
"f. c #AA6947",
"g. c #A26E4C",
"h. c #B66C48",
"j. c #A3714C",
"k. c #AC744E",
"l. c #AE784D",
"z. c #B1774F",
"x. c #BB734C",
"c. c #B2794F",
"v. c #AE7A55",
"b. c #A37B5E",
"n. c #B37750",
"m. c #B77951",
"M. c #BB7C52",
"N. c #8C6262",
"B. c #976968",
"V. c #8A766A",
"C. c #9B7471",
"Z. c #AA7373",
"A. c #BD7C7D",
"S. c #C3794F",
"D. c #C37D52",
"F. c #C87F52",
"G. c #C17F7F",
"H. c #2C830F",
"J. c #2E8113",
"K. c #328215",
"L. c #338815",
"P. c #33821A",
"I. c #39841B",
"U. c #38891D",
"Y. c #3A8821",
"T. c #43811F",
"R. c #7B836B",
"E. c #848A73",
"W. c #938279",
"Q. c #A4927D",
"!. c #C58154",
"~. c #CD8455",
"^. c #D18756",
"/. c #D28856",
"(. c #9E9B8A",
"). c #A18B81",
"_. c #BBB39D",
"`. c #C68181",
"'. c #CE8686",
"]. c #DB8D8C",
"[. c #C3BFAB",
"{. c #C1C1A6",
"}. c #CFCCB6",
"|. c #E7E4C8",
" X c #F0EBCE",
/* pixels */
"Y.a 8 a P.P.z f f s a s 2 a g s g j g f a f J.s w 6 w w z a p g a a P.g 9 j j d a s f d g K.g 6 s j j a d d 9 g d H.K.9 9 h 6 4 2 j K.2 d 3 p g l k P.k 3 a 2 6 ",
"8 6 p a d P.d d d s s s 2 g a 8 a d d s a p a p p p a z g d s P.a s a g K.g a a p j p s s 8 7 p a d h f d s d d d g d a 9 7 K.9 a d 7 7 8 a 9 d 9 d a 6 6 p 7 6 ",
"6 J.d s d J.s J.P.s p a a f 3 8 a d p g a a f p d d p a a a 8 P.p w f f d g a 8 p s 6 s d 7 8 p J.K.d d s s a 6 9 8 d p p a j K.j J.d d 8 7 s j d 7 g d a 3 3 6 ",
"J.g d a g d g g d s a g d a 6 2 g g p s p a p d d s f a a p 8 g d p f d d d a w p p p g f a 6 6 d s 7 K.s w , p 2 6 s 8 a j j d d p a s a 7 e s d 7 h a d a g a ",
"J.g p p s s s s g a p s J.g s 2 a a g g s d d a a s a s 6 6 s s p a q s 7 7 g g f p a w w p 2 s g 8 6 d d p a z p p s : 8 g 9 8 d 8 8 7 g l a 6 7 6 j h L.d g g ",
"s 8 w w p p p f 7 a 2 6 6 : 6 g p s 8 2 6 s a s 6 d d 8 a a d s p a p 6 d g a a g a f p w s 2 8 a a 6 6 p : p a 2 p p 6 2 g s P.s a a g 6 f s 2 p 3 7 d d 3 g k ",
"6 , 0 , , ; w p a s 6 a e 2 a 9 p s s s d d J.s p d s 8 d g s d J.J.g p p a a f f f f p p w w 2 a s 6 a 6 6 s 6 3 p 3 h p 6 8 s d 8 h a p 3 p 6 s j d 9 z a h h ",
"; , : , s , , s s 8 p a p s 8 8 8 d s p 8 s , p a s d s d 8 a J.g a p p a p w p p a , p s s a 7 a 2 p a p 2 2 a f e e e p e 7 7 3 6 1 e a p f p 7 s 6 6 9 6 a a ",
"w : , , , p , s 8 s 6 s d d s 6 2 s a w 6 p w p a 7 s j 8 8 g p s a d s a h s a w : : s a 9 j 6 : 2 6 ; : 2 6 2 7 w 1 a l l e h a a 3 a 6 3 2 2 6 2 p 6 s 6 e 3 ",
", = 6 , s s d 6 8 6 6 8 s d d : 8 8 s s p 6 a f d 9 s K.6 9 L.s f s f a p p 6 f g 8 7 p s 6 j a 6 s 6 : ; 2 = ; 3 2 6 f z z e a a g 3 1 6 s 2 6 8 6 6 9 8 7 7 l ",
"s p d 6 , s 8 H.s 7 9 6 p d J.a g J.8 d 8 8 p d d d d d 9 p f s d g s a p p s s s 7 g d s 8 s L.a a 6 p a s 3 2 1 3 7 2 a z 0 3 3 a p 2 s 9 g 9 a 8 d 7 7 a a x ",
"g : , s s 8 8 8 5 6 5 2 6 s p J.7 s s s 3 s 6 8 7 9 7 s a e a f 8 s 6 w 2 2 6 8 6 8 a 2 : 2 6 9 9 d a 8 3 f d a p 3 p j h h 9 h a 3 8 9 a a 2 6 7 8 a 7 a 7 f k ",
"d : : s 8 H.5 , 6 : s 6 = , 8 d 5 9 6 d 6 6 8 8 d 8 7 9 8 s P.p 6 s , s p 6 8 6 8 s 2 2 3 2 6 6 , 2 a 6 : 6 s p f 3 a j d 7 9 a a d j d d h w : w d 9 s 7 j d d ",
": , p : 5 8 8 8 6 7 s s H.s s 9 8 d s 9 5 8 J.J.d 6 6 6 , , s s 6 : w w , 6 , 6 6 a 8 6 a 6 a ; ; 6 2 p 2 w p p 2 6 p s d 6 a 7 p a 9 K.d a 6 s s h d 7 6 h j a ",
"8 H.6 6 6 6 8 d 8 8 8 8 s 8 5 s 8 8 8 6 8 s s s J.8 8 5 6 6 8 6 , ; : a p s 6 6 8 6 6 3 f 6 d 3 p d d g 8 a f s a s 6 s : 2 6 6 8 z 9 7 9 8 = 6 , 6 8 6 g d d 2 ",
"6 8 , s 6 d 9 L.d s 9 J.d J.g J.8 8 8 2 8 s 5 J.d s 8 8 d 9 8 8 s 6 ; p w 6 a a a 6 6 6 2 * : g g s 8 6 a 8 2 2 a 6 6 5 6 ; s s d s 6 7 8 9 6 , p , 6 2 1 2 2 O ",
"p : a , : s d s 7 h 9 9 J.d d 8 9 d 9 d 9 9 5 9 6 3 9 a 7 < 6 : 8 g 2 w p 3 h g I.a 6 3 2 6 8 s a 2 : 6 d p 1 2 2 6 5 6 5 6 9 L.J.L.p H.d 8 s 6 p , , : O : ; ; ",
"a 2 , p : , J.s 6 p s s d 8 9 d d 6 9 5 9 6 J.8 6 2 9 h h 6 9 6 2 a p h 7 8 9 g g 9 a d a s a g s 7 7 a a s 6 p 7 6 9 9 9 9 d 9 8 g a d d 6 : p s p : p : w 2 g ",
"J.6 , , : 8 8 , 6 : 8 7 8 j g d 6 6 2 6 4 6 s 7 8 6 g a 9 7 j 7 7 7 h a a 2 3 6 8 J.s s 7 6 6 2 3 3 a l 2 6 2 6 9 5 8 6 3 J.6 6 , d 2 8 9 = : : , p : : a a 2 2 ",
", & : p 8 s 6 8 s 7 2 6 J.s 8 7 < , = 8 5 7 6 a 2 : d 2 7 6 9 a P.8 h 3 2 a 2 4 8 8 6 7 2 f 3 8 6 4 7 9 J.7 4 7 6 9 6 9 6 9 d 8 6 d s 6 8 3 ; ; w 6 2 0 ; 2 6 3 ",
"= 2 w : 6 s s 8 8 6 2 : 8 9 a 7 6 6 7 z d 7 9 7 : : s 8 d p s d s ; 6 2 a l l < 2 , 6 6 0 6 6 3 4 9 7 9 J.d 5 9 7 9 J.H.= , d d 6 6 2 2 2 6 2 2 ; : 1 2 : 1 7 a ",
"6 7 3 7 2 2 8 2 = 2 6 2 d 9 g 7 6 z d d 7 a 6 g 6 a 6 d s 2 a 6 s w 3 p 2 7 9 = ; 6 s : O ; 6 p 2 7 d K.9 J.K.j 6 5 L.H.5 = 8 H.9 7 7 7 s s 6 2 p w e p 3 2 2 2 ",
"8 p l 3 p 2 ; = : J.d 5 3 8 d d a h a 6 p d a a : p s s p ; a p a 7 g a 2 f 8 , : : w 2 w s 2 a M V h L.K.K.I.d H.9 9 J.8 9 9 J.2 6 < g P.d s a j 6 e w 6 6 p 2 ",
"k a p a 7 : 6 7 d L.L.J.a a d g d a 8 : a 7 7 7 2 a a P.f d p 2 s s 6 2 p 6 s 6 0 $ m # 0 f l L E K 4 9 6 8 8 w d 7 > 9 2 H.P.d 6 s 3 s 8 6 a 7 p 6 8 3 6 : w a ",
"L.d 6 a d 7 4 9 h K.K.9 p 7 h 3 6 9 9 9 8 6 9 6 d 8 : e a 7 6 8 K.7 9 < 2 2 p e N D ..b # e ] %.1.U ; g s j 7 h K.j 8 8 6 H.d H.6 7 < p 2 2 2 2 8 6 8 : s s 2 8 ",
"8 8 2 7 7 7 9 8 9 7 d 2 d 9 7 d j 6 d 6 8 s 3 , 2 = ; p g j 3 6 z 9 e q a 7 h N ..O.o...D Z *.4.s./ w h h d H.7 7 d 8 9 9 J.2 6 7 2 3 7 3 e ; 2 3 2 2 = = p 6 6 ",
"6 3 7 g 3 1 6 6 < 6 7 < d 6 2 g U.d g s P.d k 1 ; = 2 s 7 h 6 6 j d V Y K y 1 Z o.+.+.+.+.o.@.<.d.) a h d 9 7 6 6 j 9 d 8 6 = , 2 6 z g 6 ; : 2 * ; 2 w ; w p ; ",
"2 g 8 3 2 7 * 4 7 9 9 6 6 9 9 H.H.6 9 g a d d 8 6 6 3 a 6 6 6 d 9 9 J >.%.} W T +.O.+.+.O...| ! s.^ e 9 j 6 8 6 6 s h 9 8 9 J.9 8 9 f 2 2 2 p 6 w 1 w ; : a O 6 ",
"6 a 7 3 1 < = 6 < 6 6 9 9 2 6 6 K.d 7 9 9 7 d s J.s d d d 9 6 9 6 a % 7.8.3.r.#.O.O.O.o.o...$.*.` J J.d a 6 = = < 9 d K.2 6 s s 8 d 8 3 0 ; 2 p e 0 : ; * a 6 7 ",
"2 2 6 < 8 7 = 6 6 6 6 6 8 a z s 9 j d 5 6 8 : , 6 s a J.s e @ 7 e $ M _ d.8.6.r.$.#...o...o.$.m.) # K.d 8 d 2 2 & < 7 d 2 = 9 8 : s ; X ; : : ; ; 0 w p 6 a 2 2 ",
"6 j 9 9 d I.e 4 = 5 6 a 2 9 d 8 9 7 9 H.2 4 = > = : g g h m Z A n D ..R 8.s.3.m.M.m.r.@.$.%.@.m.k.F d 9 8 5 9 9 2 = 2 = 7 6 < 9 , s : ; ; - ; : 6 : : p 7 6 s , ",
"6 9 K.9 6 9 h 9 < 8 2 3 p g L.9 H.J.J.9 = 6 > 6 6 : r n A D o.o...o.+.X.$.4.r.~./././.y.%.m.0.D.~.{ l 7 6 6 7 7 7 6 2 < 7 a 6 a 6 : 0 ; 6 : : : : = 2 ; 2 ; * & ",
"3 < 6 2 6 4 6 4 < 4 2 2 9 9 7 9 H., 8 p ; 8 = 6 6 6 # T ..o.| o.o. .o.o.| $.n./././.~.~.!./.^.~.^.k.' d K.p 7 7 z 6 7 6 9 9 2 7 6 w 2 O : 2 : : 6 1 3 ; ; : ; X ",
"7 3 2 < * > 7 7 j j 4 9 3 2 : 5 , = , o & = , 6 @ P 9.n.k.r.&.%.&.*.w.y.k.6.D./././././././.^.^.^.!.U w s U.a 7 a 3 8 6 6 9 P.9 2 ; w 2 0 ; ; 3 1 2 w , 2 6 : : ",
"1 1 < 3 6 5 9 9 H.9 5 2 6 6 j h H.& ; 2 : : 6 q U m./.^././.^.^././././.D.r./././.~./.~.~././.^.^.!.E # 6 f p 6 2 8 : : : J.L.9 : 2 p 3 ; O * 1 6 ; 0 2 1 1 < * ",
"1 7 5 3 7 H.7 6 5 9 7 7 9 K.h 7 : , 2 8 6 s p U M./.~.^.^.~.F.F.D.F././.!.k././././.k.&.D./././.^.j.y.Q 2 w 2 o 6 2 : O : ; d g 3 6 6 p 1 & + ; 2 ; ; 2 3 6 2 6 ",
"1 L.9 7 4 H.j 4 4 7 j j J.K.9 9 s s d 0 < 9 % j./.F.~./.^.S.S.F.F.F.^.^./.~././.^./.j.$.M.^.^.^.^.j.j.v.J a 6 2 8 8 p : * ; 3 s * 2 2 z 2 2 2 O : : 1 * < 7 2 h ",
"2 9 < 7 6 6 7 9 6 7 9 H.7 9 3 2 , J.J.6 < 6 / ~.F.D.~./.^.^./.^././.^.^././././.^.^.^.~.^.^.^.^.^.~.t.j.u.B : ; r a a s 2 ; ; g 6 7 s p 2 3 7 1 ; e 6 1 6 h 7 9 ",
"2 3 + 6 : 4 6 H.7 2 4 d < 9 = 6 6 J.d s 1 e 9.~.S.~./././.^.F.F.^.^./.^././.^./.^.^.^.^.^.^./.!.u.~.m.*.5.} % 1 [ G 0 : w 3 8 g 7 7 1 < 1 6 d 7 1 3 a 7 4 J.9 d ",
"h 7 6 9 < 6 > 5 = + < < 6 9 < d 9 9 9 g 1 p g./.~./.~./.F.S.D.F.^.^.^././.^./.^./.^././.^.^./.n.V.p.p.B.N.i.W # E.R.6 , , : 6 6 2 2 2 * 1 1 7 3 a 3 2 < 4 9 9 < ",
"4 6 6 < * = = < * 1 6 * < 7 6 6 6 9 7 d 1 2 c./.^.^.^.^.~.^././.^.^.^.^.^.^.^.^.^.^./.^.^.^.^.b._.B.`.].].G.=.-.{.(.* * ; 2 * * + w 2 & + O 2 2 < 1 2 1 < * 2 : ",
"< * * < 4 = 6 6 7 6 2 * = 2 * * = < 6 2 1 7 M./.^.^.^.^.^.^.^././.^.^.^.^./.~./.^.^.^.^.~.~.~.b.}.).N.Z.'.N.Z.W. XE.6 a 2 6 2 ; O 6 8 1 q 3 f * * < h 2 * o = 8 ",
"7 4 1 & 6 : = = d h 7 6 6 ; 2 6 2 1 2 7 3 9 c./././.~.D.F./.^.~.D.F.~./.^.~.g.D././.~.r.y.^.!.Q.|.).B.B.A.=.G.).{.[ ; 7 * 2 2 6 p 7 ; 2 e w 6 2 1 3 < 3 2 < < 6 ",
"k d 1 * < = < * * = 1 1 2 * 1 1 6 6 p a d 9 j./././.F.D././.^.F.F.F.^./.^./.g.g././.D.w.q.!.a.}.[.C.'.A.A.G.B.:.;.2 2 8 2 s 2 2 w : 2 ; 2 ; 1 2 < * 2 7 < 2 < K.",
"6 * < 4 = : 6 = * 2 ; + 2 O e 1 * 4 4 6 6 d 0./.^.^.^.^.^.^.^.^././.^.^.^.^.D.3.g./.^.~.n.6.i.).a.i.p.p.p.&.V @ 0 a s s ; a 3 0 p 2 2 : 2 0 e 2 < 2 3 6 3 2 < 2 ",
"3 7 7 6 3 6 a 3 8 J.6 2 < = h < 1 7 9 2 6 h / ~.^.^.^.^.^./.^.^.^.^.^././.^./.d.3.y.F.^./.~.M.!.D.!.D.M.9.B 2 1 = : p ; ; g d 6 p : ; w : 2 k 3 < 7 3 3 h 6 6 < ",
"7 3 2 7 * 3 p 1 1 2 6 p + 1 6 o & 9 2 6 2 7 J M.^.^.^.^.^.^./.^.^.M.~./.^.^.^.S.d.4.5.r.k.n.M.D.v.u.9.I q 3 2 : 2 : s * : , : , : : ; : 7 g d 3 * 2 7 1 O = 4 6 ",
"6 = 1 2 2 1 7 2 = 3 d 2 2 6 6 7 : d = 2 * 7 y j.^.v.M./.^.^.^.^.^.t.M./.^.^.^.^.h.d.s.7.4.5.! P ' y q : ; : 2 6 = : w : , 0 : + w w ; 6 0 2 7 2 * : a 7 * 6 6 7 ",
"< 1 6 3 2 : 3 6 p p 7 2 < 6 3 I.d p : 2 : , e { ~.m.0.D./.^.^.^./.g.z./.^./.^./.x.d.d.d.d.<.L e = 6 2 < 2 8 8 8 : : 9 8 : : = : ; ; & = : 6 : ; * 7 7 2 : 8 2 6 ",
"X 1 * * & ; 2 2 e e 7 9 9 7 3 K.J., - = 2 : 2 I D./.n.w.m.^.^.^.^.m.y.^.^.^.^.^.x.d.d.s.>.H e 7 = 2 6 2 = 0 a a 8 s J.H.8 : 6 3 : 2 2 2 6 8 p ; : 2 O O X 6 7 2 ",
"q ; ; 6 2 6 a 3 a 3 d a 9 6 5 6 > > > = 6 s d u l.^./.M.) 0.M././.^.t.!.^.^./.!.h.s.<.~ v 2 d J.a a * 2 6 a 2 2 3 3 7 j 5 6 : 6 2 ; 2 6 a 6 s ; O 6 = ; O : 2 6 ",
"t ; : 3 3 7 2 2 e 3 j d 6 ; 2 9 > = = > : ; 9 q q.^.^.l.J N ) 6.g.c.0.m.^.^.!.f.,.~ ` >.B 6 6 9 < p 8 2 2 a 6 a p p a j 9 9 6 2 a a 1 : 6 6 8 8 3 9 6 6 = & 2 d ",
"d 7 : ; 3 a 1 6 9 h j a a 7 2 4 4 9 6 5 6 , : + 2./.~.} a y <.8.,.E K l./.M.( L H 4.d.,.% : 6 d 7 3 8 2 * s 6 2 7 a 6 3 6 2 = * * 7 1 3 6 , 6 a 6 6 2 : 6 = 1 a ",
"6 6 : ; 8 2 * 1 2 6 7 3 a z d 9 g 8 8 5 5 6 p : { ^.!.] a u 1.d.1.J y k./.j.y 9 u 8.d.` @ h 2 6 4 6 6 7 : 6 2 2 1 < 2 2 6 2 6 4 2 6 ; ; = = 6 s a 2 d 5 6 = 2 8 ",
"6 9 9 6 6 2 6 j 9 7 6 6 7 6 9 9 8 8 s 8 6 6 p 0 { ^.l.F p J 1.d.) q u k./.e.i K.' 1.d.) 0 9 < < 4 * 7 a 6 6 p : 2 = * 2 2 2 = , 6 a 1 1 = = 2 a p 8 8 , 5 4 4 7 ",
"h d h g s a h d 2 6 2 4 6 4 9 j 8 9 g a 8 6 p w ( c.q.y 0 B ,.<.L 2 % t.n.} a 9 % >.1.^ e 4 6 9 9 6 a 6 3 2 2 6 6 6 < 6 6 5 7 6 1 p a p 8 * 6 7 g 6 6 : 6 6 s 7 ",
"f a 2 w 7 a 2 3 6 6 6 5 9 9 L.9 7 d L.2 f 7 d e S @.T q 2 M T T % 6 $ X.X.T a 9 # T X.S p 2 9 d 9 2 2 6 p w p 6 3 a p 2 2 6 6 9 a g 7 z ; ; 8 s d 6 6 p 1 * < & ",
"* a 6 2 h d 6 8 6 7 h 6 4 4 L.H.7 7 7 3 s s p ; C . C i a c .   # p r . . b a 9 y . . b l a 7 8 6 7 6 p z 7 6 2 a 8 p 2 2 : 6 2 8 6 2 e w 3 6 6 s 6 : 6 = O < 6 ",
"9 7 d : 9 a 7 d 7 3 4 < * 9 7 7 7 d 7 f j 6 6 a 6 s a j k g 6 6 9 7 s a 9 j d 7 9 z a d h l g 2 2 d a 2 e e 6 6 s s s p * 6 8 5 ; 6 2 2 : ; s a s 6 8 5 6 7 7 5 ",
"P.2 2 * 3 d 6 d K.6 7 7 7 9 9 9 8 7 d a K.p 7 7 a 6 p z p s 2 , 6 g 7 3 7 a g d 6 z d 8 6 a k g 4 j K.9 h 9 K.7 a a 2 s , , 9 8 a 5 K.9 s 6 f g 8 6 H.K.h a j 9 ",
"T.e p 1 3 6 s s d d 6 2 d j a 7 d a 6 2 d s s d 2 a p a 2 g 2 3 w 2 s s 7 h 6 7 a 8 a w 6 7 h d h K.9 7 9 d 9 f g j 6 8 , 8 , : d K.K.d 9 5 8 6 s 6 5 j L.7 7 6 ",
"k s 7 2 ; 6 d 2 2 6 : 2 6 7 g 2 2 7 9 d d s w w d g g f w 2 w * 2 w 6 p < 7 6 9 a 9 9 6 3 6 9 H.K.I.K.I.K.d 9 d 9 a 8 J., , s d a 6 K.L.L.8 9 K.j d j 9 d d s 2 ",
"6 : 7 6 2 6 9 6 2 6 8 7 6 2 9 8 6 2 7 d p 1 a w d j a g p 2 2 2 8 p a ; 2 6 5 j 8 8 d 5 8 6 a 6 9 6 6 7 K.d J.d 8 d d 5 6 : J.d 7 2 2 5 K.9 9 9 9 a s a d d J.d ",
"6 - 8 9 6 2 8 6 = 8 a 7 6 6 a g 2 2 2 w 8 7 7 p 2 s h 6 p p 6 3 6 ; 0 2 6 6 H.9 d 9 5 8 5 8 6 6 4 = 2 8 j 7 d 9 K.7 8 : , 6 L.J.d 7 6 9 9 9 9 d s 6 a 8 d 9 d s ",
"s 6 8 s 8 d 9 2 6 , : p s g 6 6 9 5 a 6 7 9 9 7 a 6 a 7 7 7 2 d d 6 7 p 7 7 J.5 7 6 9 6 9 H.7 8 7 7 8 2 h p 9 9 d 7 9 a 8 6 9 K.8 2 9 7 d 9 9 a p f , : 8 : 2 6 ",
"9 6 5 , : 6 6 6 , 6 2 s 7 d j 3 g d 6 s 2 3 7 7 3 2 9 d h 7 h e h 9 9 d j h d 9 9 9 K.9 6 H.d 9 z 8 7 2 9 8 7 f d 9 7 7 9 2 6 6 7 2 s s 9 6 9 5 8 2 : : 6 2 6 d ",
"J.7 6 d 9 6 s s 2 9 d d j s K.d s J.9 8 2 2 6 7 6 8 8 a s p 8 3 6 9 h g f x 9 9 z 9 9 2 2 7 9 7 7 8 g 7 2 5 6 2 6 2 h a 6 2 6 7 6 6 j 8 6 a 9 8 8 8 6 5 : 6 6 d ",
"9 9 5 9 8 8 d 8 7 j d s 9 9 5 8 7 6 9 8 6 6 8 s 2 6 ; : 6 6 , = 6 7 6 8 a K.K.I.U.L.9 7 7 6 9 d 7 5 9 6 s 6 : 6 7 7 a s 2 2 7 7 2 0 2 2 7 5 2 : 8 8 J.6 = 6 > , ",
"s 8 9 9 s d j d s p p s s g s s 9 J.8 6 8 2 , 8 , p p : 6 s 6 : s d H.< 6 8 6 s 9 j K.K.9 7 7 9 d s p p p 6 6 8 8 6 p 2 6 9 p 8 2 2 1 3 6 6 = 6 = 4 5 9 5 6 6 6 ",
"* 5 6 8 s 8 8 5 : : p a s : = , J.H.6 9 j 8 , 8 s p 6 , 6 : 2 6 a 8 9 6 2 6 6 5 7 9 9 9 K.9 d 7 6 s 2 6 6 a s d 6 6 p 6 a f f s 7 6 4 6 6 7 1 6 9 9 9 j J.8 h K.",
"* 6 a 8 6 s 8 8 5 6 6 6 8 6 6 6 8 J.9 s d d 8 8 s s d p s s p d 7 a 6 6 5 6 , 2 d P.j j 9 6 : 2 = 6 3 6 6 d s 8 9 6 a p 9 9 j j h d 9 7 H.9 s h 7 7 9 9 9 7 d d ",
"6 s s a 6 8 2 , 6 6 ; : , 6 6 s 8 6 a g a 8 s d a p a s J.d a a 8 8 a p s 8 J.8 9 9 7 8 J.8 s 8 6 6 7 H.9 j 5 8 9 j h z K.d 9 j a 6 6 6 a h a 6 j 9 K.z j 6 7 6 ",
", , 6 s 3 6 6 8 8 5 8 : : d a d s p s s , p s s s f s a g d d 7 s g d a s 8 8 s 9 9 J.d d J.J.g p e f 7 j 8 6 p j j 7 I.I.x j K.l 7 j h h d 9 9 j 9 j j j 9 h h ",
", : 2 9 p 6 3 s g d J.s s d z J.s a p s p p d d p a p s P.P.d 8 6 w g 8 2 s J.d s K.L.L.L.d s 6 s a d a a 6 a 7 s 7 7 p 7 h t h 6 7 h 7 a a a a d j j j j h 7 7 ",
"s * : : 6 s j s 8 s s J.a s g s 6 s s f a s d f d d p p 8 j J.g w w s J.s s s d a d J.d J.9 2 s a 6 9 9 9 6 6 a 6 p d h d z k h e a d a 7 a 8 2 3 7 h d a z h d ",
"s 6 6 2 8 6 g s 8 s s s 2 6 8 s 6 s p , : p p : p p s p 2 s 7 a Y.s g P.d d d s a s 9 6 2 g P.8 8 6 s 8 g 6 a 3 a a 7 h p j e 7 p J.d 7 3 6 2 2 a e 2 2 7 s d h ",
"s 6 s 6 s p a 6 p s s p a p p a 6 p w 6 6 s s a p a p w 2 s f g z f a g a 6 a d I.J.a 6 a s f J.J.L.d 6 s s 8 p g 7 3 a 7 7 2 6 h 8 2 7 6 3 a f s g 2 p 6 a d a ",
"d 6 : , p p 2 p 6 s s : 0 p 6 g , s p s 3 6 p w 3 p p p 2 p d w a a s d g g s d g s a a s J.J.g g J.9 9 a d s J.K.d K.s j 9 a d 7 9 g s 9 6 6 p 9 h d 3 d a a 7 ",
"p s s d s d s d J.8 p 6 , 6 s f a s s 6 2 s s p 2 6 a s : w s a 6 p 3 g a d d g d g P.g z z J.J.8 d d L.J.6 6 K.d d 9 : 7 8 ; g K.J.9 6 8 8 w 2 a a s 8 g g d I.",
"J.s J.J.J.f z U.J.s s d L.s d p p s p a f a s , 6 s p p p 6 g a : 0 3 s s d K.K.j z s d s a p a a s d d K.s 8 z a I.d 6 6 p : w K.J.s 2 g j k a g 9 7 7 2 p 6 7 "
};
