/* XPM */
static char *result[] = {
/* columns rows colors chars-per-pixel */
"80 80 246 2 ",
"   c #0A0A0A",
".  c #0F190C",
"X  c #141612",
"o  c #340E07",
"O  c #341A11",
"+  c #19270D",
"@  c #193A0C",
"#  c #1C2A18",
"$  c #1D3915",
"%  c #362B0D",
"&  c #38340D",
"*  c #372413",
"=  c #2B3112",
"-  c #24371D",
";  c #252724",
":  c #2A2A2A",
">  c #322F2C",
",  c #293525",
"<  c #333333",
"1  c #363833",
"2  c #3B3B3B",
"3  c #460707",
"4  c #5C0202",
"5  c #540708",
"6  c #511A15",
"7  c #640001",
"8  c #48250F",
"9  c #5B370B",
"0  c #472916",
"q  c #4A3516",
"w  c #553814",
"e  c #673E09",
"r  c #473527",
"t  c #55362E",
"y  c #603332",
"u  c #154707",
"i  c #1B440B",
"p  c #1B4D0B",
"a  c #155A06",
"s  c #1A5D07",
"d  c #1C540B",
"f  c #1D5C0A",
"g  c #1E4D11",
"h  c #24460D",
"j  c #234D0E",
"k  c #30420F",
"l  c #23540E",
"z  c #2A540C",
"x  c #215C0D",
"c  c #294617",
"v  c #244B12",
"b  c #374918",
"n  c #245311",
"m  c #2B5816",
"M  c #37561C",
"N  c #176107",
"B  c #1C6507",
"V  c #1D6B07",
"C  c #1D6509",
"Z  c #1E6B0A",
"A  c #1F7106",
"S  c #1F710A",
"D  c #206C07",
"F  c #22650C",
"G  c #226D0C",
"H  c #296E0E",
"J  c #217307",
"K  c #24730D",
"L  c #29750E",
"P  c #26790D",
"I  c #297A0E",
"U  c #256311",
"Y  c #286412",
"T  c #256D11",
"R  c #2A6D12",
"E  c #316717",
"W  c #267411",
"Q  c #2A7512",
"!  c #277911",
"~  c #2B7B12",
"^  c #2E7719",
"/  c #2E7B18",
"(  c #317515",
")  c #317C15",
"_  c #327619",
"`  c #327D19",
"'  c #387C19",
"]  c #2B4922",
"[  c #374926",
"{  c #3A5726",
"}  c #3E403F",
"|  c #45471A",
" . c #524F19",
".. c #67400F",
"X. c #794807",
"o. c #6C4616",
"O. c #754916",
"+. c #74621D",
"@. c #494C22",
"#. c #475225",
"$. c #514A32",
"%. c #485935",
"&. c #575936",
"*. c #694628",
"=. c #655C2D",
"-. c #795525",
";. c #665933",
":. c #735B3C",
">. c #50602B",
",. c #4B6132",
"<. c #57663B",
"1. c #7A612F",
"2. c #7B6538",
"3. c #4F3F40",
"4. c #434443",
"5. c #484847",
"6. c #4C4C4C",
"7. c #4E5E48",
"8. c #5B5249",
"9. c #525252",
"0. c #56595A",
"q. c #5C5C5C",
"w. c #6B5545",
"e. c #6A564C",
"r. c #5E6642",
"t. c #656847",
"y. c #796748",
"u. c #6F6A58",
"i. c #796854",
"p. c #7C7553",
"a. c #5B5F60",
"s. c #6B6B6B",
"d. c #727167",
"f. c #757675",
"g. c #7B7C7B",
"h. c #8F5713",
"j. c #885616",
"k. c #9D6515",
"l. c #B7710F",
"z. c #A66815",
"x. c #B87617",
"c. c #875B2B",
"v. c #8A6D2A",
"b. c #996528",
"n. c #88653B",
"m. c #956C3C",
"M. c #A86D25",
"N. c #AD742A",
"B. c #A27234",
"V. c #B27C37",
"C. c #CE7E0C",
"Z. c #C27C18",
"A. c #8E5E4E",
"S. c #866647",
"D. c #946B4E",
"F. c #997346",
"G. c #876C58",
"H. c #87745C",
"J. c #987458",
"K. c #A67A49",
"L. c #A47B5A",
"P. c #897663",
"I. c #947A64",
"U. c #947A65",
"Y. c #867C79",
"T. c #957675",
"R. c #BD716F",
"E. c #2B820F",
"W. c #2E8113",
"Q. c #318215",
"!. c #33821A",
"~. c #37861A",
"^. c #3A8821",
"/. c #43811F",
"(. c #D2810B",
"). c #CB8315",
"_. c #D38816",
"`. c #E58E0D",
"'. c #F79B0E",
"]. c #FA9C0D",
"[. c #EA9613",
"{. c #F59C11",
"}. c #88835D",
"|. c #AA8157",
" X c #B58557",
".X c #8B836D",
"XX c #9A8468",
"oX c #A9876B",
"OX c #B38A68",
"+X c #AA916D",
"@X c #A88B72",
"#X c #B58F72",
"$X c #A59471",
"%X c #AC9472",
"&X c #B39374",
"*X c #B8977A",
"=X c #BD9A7B",
"-X c #CA9669",
";X c #D69E6C",
":X c #C69A78",
">X c #CBA37B",
",X c #D8A479",
"<X c #E7AD7B",
"1X c #848584",
"2X c #8D8D8D",
"3X c #8F9290",
"4X c #959595",
"5X c #979897",
"6X c #999999",
"7X c #BFA083",
"8X c #A5A5A5",
"9X c #AFB1B3",
"0X c #B7B8B8",
"qX c #C09F81",
"wX c #EC9290",
"eX c #C5A585",
"rX c #CBA685",
"tX c #CDA885",
"yX c #CBA788",
"uX c #CCA889",
"iX c #D7AA85",
"pX c #D2AC8A",
"aX c #D4B28D",
"sX c #DDB18B",
"dX c #DBB891",
"fX c #E1AE86",
"gX c #E3B48D",
"hX c #EAB589",
"jX c #F0B686",
"kX c #F2BA8D",
"lX c #E3B690",
"zX c #E2BA93",
"xX c #EDBB91",
"cX c #F5BC91",
"vX c #F8BE93",
"bX c #EDC398",
"nX c #F5C195",
"mX c #F4C498",
"MX c #F6C69A",
"NX c #BAC5C8",
"BX c #C7C7C7",
"VX c #D7DBDC",
"CX c #E9E9E9",
"ZX c #E6F0F2",
"AX c #F4F6F6",
"SX c #FDFDFD",
/* pixels */
"^.Q P Q !.W./ ^ ^ ! Q ! Z Q / ! / / / / Q ^ W.Q G K T W ) Q W ) Q Q !./ Q ` ) ~ Q ! Q ~ / W.~ L ~ ) ) Q ~ ~ ~ ) W.I ) I I ~ H K G ` ) G ! K L / ` ' !.' G ( G L ",
"P K W Q / !./ ~ ~ ! Q ~ G / Q ! Q ~ Q ~ Q K Q Q W Q Q / / / ! Q.~ Q Q / W./ Q Q R ) Q ! ! ! L W Q ~ ) Q ! ! ~ ! ~ Q.I ~ ~ P I I ~ ~ L L L Q ! ~ I Q W P K W L J ",
"K W.~ ! ~ W./ W.W.! W ! Q Q K L Q ~ W Q ^ W ^ W ~ Q W Q Q Q ! !.W T ^ / / ) Q P ! ! K ! / ! W W Q.W./ ~ ! ! Q G L Q ~ W W W Q.Q.~ Q.Q ~ I L ~ ~ ~ L ) Q Q H R G ",
"W./ ~ Q ~ / ~ / / P / Q ~ / K G ` / Q ! W ! W Q ~ ~ / W W ! P ~ ~ W ^ ~ I ! Q T W ! W ^ Q Q K K ! ! Q ) Q K K W Z ! ! P Q ) ) ) ~ L Q I L Q W Q Q P ( ( ) Q / Q ",
"W./ S W ! / ! ! / ! Q ! / W.! G ! Q ` / ! ! ~ Q Q W Q P K G ! ! W W R W L L / / / W W W T W G Q / P K / ! K ! ` W H K G P / I P ~ P K Q ` _ Q P L K ) ( Q.~ ) ` ",
"! P W T S W W W Q Q G G K Z K / W ! ! K P ! Q W K ~ ~ ! Q / ~ ! Q Q W K ~ / Q Q / ! ^ T T ! K W Q Q G K K G W Q G W Q L G / I !.! I ~ / W Q W G Q G L ~ ) H Q ` ",
"K G Z G W N T W L ! K Q W G L ! W L ! W ! / W.! ! ~ ! P ~ ~ ! ^ / W.~ W W Q ^ Q ^ ^ / R W G W G Q Q P ! ! G Q K W W T ( R K P ~ / L ( I W R K K ~ ) I I Q.Q ) ` ",
"C S G Z ! S W ! ! P ! R W ~ P L L ~ ! P P P K K Q ! ~ ! ~ P Q W.^ ! W W ^ W T W Q W G ! ! W Q W Q G W Q W G K Q Q R W R W W Q G G G F H ^ W ^ W L ~ K K L K Q Q ",
"G Z S S S K K ! P ! W ! ! W.L K G ! ! T G ! T W L I ! ) P P / W ^ ! ~ Q ! / K W R G S P Q I Q.K Z Z K Z Z G K G W R G Q _ _ R ( Q Q H Q L H T G J G Q K ! K R G ",
"Z V W S W ! ~ S L K K P Q ~ ~ Z P P ! ! W W W / / Q ! Q.K E.W.Q ~ ! ^ Q W Q T / / K L W ! P ~ Q K ! K F Z G C C R G W Q _ ` R Q _ ` G F K ! G K ! G P I P L ( _ ",
"! W ! P P P P E.! L I J K W.W.~ / W.P ~ P L K / ~ Q I ~ ~ W / ! ~ / ! Q W Q ~ ! ! I / ~ P K ! Q.Q Q W W W / K G G G R G Q _ Y H G Q T J ! Q ~ ! Q P ! L L Q ( ' ",
"/ Z Z ! ! P E.S P J P S K ! W ~ L ! ! ! G ! P L I I L ~ Q T W ^ ! P K T Z Z K K K I ! C Z K K ~ I ~ Q P G Q I Q H L L ) ) Q Q ) Q K P I I Q G K P Q ~ L Q H Q ' ",
"~ Z T K P P P P S Z ! K Z K P W.P I J ~ J K I P I ! Q I W ~ !.W K ! S ! W K W P ! Q G G H G K K J G Q W Z ! ! W Q G Q ) / P I Q Q ~ Q.) ~ ) T G G / I L L ` ( ! ",
"S Z S S P I E.J P L ! P P ! ! P P I ! ~ P P W.W.~ J P J V S ! ! K Z T T S K K K P Q K P ~ K L F C K G K G G R L T K Q ! ~ K Q H W Q ! ) ~ ~ G ! ! ) ~ L G ) ) ! ",
"P W.W K K J P ~ ! P P P I P P P P P P K P ! P P W.P P P K K P K S C Z Q W ! K J J L G G ^ K ~ T Q ~ ~ Q L Q ^ Q Q ! K ! Z K P K K ` I L L L Z S S K P K / I Q G ",
"P P S ! K W.! Q.~ ! ~ ~ I W.W./ P P P G P ! P W.~ ! K P I P P P ! K C W T K Q Q ! W K L G B F ~ ~ ! ! Q ! ! G J Q W K K K N Q P E./ J L P P K S W S K G Z T G s ",
"K Z Q S Z ! ~ P L ) ! I W.~ ~ P I ~ I ~ I I P I W H F ] 7.g.6Xd.} m f T W W ` / !.~ K K G K P Q Q Z Z K ~ Q C Z G K K P P J I Q.Q.!.K E.~ I ! K K K S Z f Z N G ",
"Q G S W S G E.! K K Q ! ! P I ~ ! L P I P K E.P W ] 1X6X6X5X9X6X8X4X2Xd.{ p T / ) Q Q ~ Q ! Q ) ~ W L Q Q Q K W Q P I I P I I E.! W.! ~ ~ K Z W ! W S G G G G ) ",
"W.K S S S K ! S G G P L I ) / ~ K K G J K J I x 7.6X5X5X6X5X8X5X5X5X4X6X8X4Xg.[ h Y Q ! L K L G G H Q ` G K G K I I P J K Q.K J Z ~ G P I Z Z G W T Z Z W Q G G ",
"Z N Z W K ! W P ! I G K W.! P L D J Z P P L L ] g.3X6X4X6X4X6X6X6X6X6X6X5X6X6X1Xt * f W L Q K L K D L ~ W.L J L K P K P J I ~ Q W ! P K P G C C G W Z U C G K L ",
"Z J T G K ! ! P P W G Z P I Q L K K L Q.I L I L ] 6.g.2X2X1X2X3X5X5X5X5X5X6Xg.g.r 0 = j x R K G K I K I W.~ L G x K E.E.D J W.~ K K K G G P G Z C Z C G G G Q Q ",
"K R G K K G P Z V V K G / ~ ~ I K ` ~ ( Q L K / G $ 1 9.q.6.9.0.a.s.f.g.1X1Xg.g.r 8 0 8 O & c p f L E.Q.I Q.n +XiX$Xc %.c C P ~ I Q K Q ~ Q J G W W R R G Z G G ",
"K W _ H Q G C V A W.I K G K ( ~ Q ( ! K L / Q Q G G l # 1 } 9.9.9.9.9.9.0.0.g.f.0 * 8 8 9 c.V.B.c.1.=.M j x p.tXnXcX=XlXxXH.r.Y G J G Q !.~ Q ! / P R T K K W F ",
"' ~ Q Q W G J ! E.~.Q.Q.~ I ~ ` ~ Q K Z ! L L L G ! / ` n - , : } 4.5.5.6.2 6.5.O O o o O c.M.N.N.N.N.V.V.m.-.G.cXcXcXkXnXxXsX*Xn ~ K ! ! K Q Q K G L K K G R Q ",
"Q.I K ~ ~ L J I I Q.Q.I W L ( G K L I L Q P L K I L G R Q T d G C @ $ - : : < ; O @ d i @ @ k ..O.j.b.M.N.N.b.#XcXcXcXcXcXcXcXnX,.G Z ! G G G K P K ! Z ! ! G W ",
"I P G L W L I K I ( ~ G ~ I L ~ ) P W.K P I K G J C Z W ` ) $ : n I I Q L x z + j L K L Q ' Q.( R f z k q w 9 tXcXcXcXcXkXvXcXvXy.1.#.I G T C G L G G V C ! K K ",
"K G L / H F G K D L I D ~ K G / ~./ ~ ~ Q.Q ` G C C C T W Q Z < 4.i ! ~ ~ d @ - p / ~ P L I Q.) Q ! I ( W L u :XcXcXcXvXnXcXcXnXw.N.v./ G G F G C f T Z V T W C ",
"G Q.Q G G L D J L I P K K I I E.W.K P / Q ~ ~ Q g + 2 < < $ d , < } p H , r 6.- G Q Q ! P P Q.) P ! L Q ) L G L.cXcXcXcXkXcXcXxXq O.+.T G G P G T F T C Z Q f J ",
"H ~ L L F D V K D K K I I G K L Q.I L I L L ! ~ W.W , < < 4.2 ; X   + ; 2 < < C T d d x I E.P G J I W.~ I K V b ;X<XkXnXvXcXkXy.Z T x G T f Z W W T N C B Q K L ",
"H G G G K L Z J G K G L K ~ ` P I I I I L P S S K K T $ : < < 4.; X   < < < < i 1 4.5.4.1 @ V J K J ) ) K I G G i |  X;X;X-XS.x Z K N s C Z Z C F U T W G W G K ",
"K I I I ~ ' L K V K J Q G I W.P W.L I E.G A A Z C @ $ .   ; < < ; 6.5.; < < } 2 < < < 2 - p D D L P ~ I I I I P D B n.<X;.z D P S ! Z C C N V Z K C F ! L P P G ",
"K I Q.~ P I ( I J P K G Q / Q.I E.W.W.I V K A N , 6.5.; ; < < 0.CXSXSXVX} < < < < < 1 i G B D K ) I Q.L K G L L I G ;.hX}.I G Q W C T C W C Z G Z V G C G C B N ",
"G H K J K J K J D J G G I I L I E.S ! K C K V # 2 < 2 q.0X2X2 CXSXSXSXSXVX< < < < 2 # p C Z C ! J Z I ~ / ! K L ` L @.jXXXP H P P T G f Z G Z Z W G G C N Z C a ",
"L H D D B J P K ` I K I G G V P S V S N V J B u u @ # CXSXAXg.CXSXSXSXSXSX0.$.1 : 1 4.} < , g T Q Q G P ~ ~.I L Q G k jX&XG Q.L G C T G U C C G F F T K G K G Z ",
"F F D H K K I ~ Q.I K D L L ( ) E.N C Z Z G K K V Z ] AXAXs.s.s.CXSXSXSXSX.XvXbXuXt.; < > 1 4.< @ G J A K / W K G P @ ,X>Xf !.I Z G W T C s s G K C T Z x G G B ",
"F I P H K E.L J J I P L I Q.I L Z S G P G L P J S B , BXAXBX2X0XAXSXSXSXZXT.vXxXcXnXuX8.; ; : } $.f E.K A K G s G G p -XlX@ / W.G K K W F B s C G C f G L K D K ",
"F Q.I I J E.) H J L I Q.) Q.I ( ~ ! ~ T D K P K C %.eXd.9XNXa.f.AXSXSXZXs.qXpXsXxXcXcXcXH.x N u $ . S W S ~ P Z P P F |.mXc ! ! D G G ` G D G f Z Z B B G P D ( ",
"D P H I G K P I K I E.I L I H J S W.~ K D L J ~ M yXyX=XG.8.P.i.s.3X2Xu.i.XXyXXXoXpX#X:XnXP.F K S S Z W.W.S Z V G Q Q F.nX&.C / K L Q K G H H F F R L F K ( L I ",
"D G x J G J P E.K D H I D I V K K W.~ W F L K ~ i.rXyXpXuXuXuXyXU.U.I.H.G.7X*Xt r @XG.H.iXnXp.~ W.S / W N V G B G G G 2.xXp.! / L L D D F P / P F H L L K I I I ",
"( H L P G J J J V F D D K P J / I I I / x I K f I.yXyXrXuXuXuXuXrXrXyX*Xi.e.XXP.i.w.XX@XOXkXxX%.W.! W.! / ~ L G G G S =.kXXXG K G G G B F x W W Q H G D J P I H ",
"J L J D B V V D B F K B D L K J K I L I d i t.H.qXuXuXuXuXuXuXuXpX:XyX:XyXi.@Xe.i.I.P.U.#XxXcX7Xp f d n m { ,.<.t.p.}.&XkX%Xf B f G G N F a G G J F D F V B D Z ",
"D V F V J V P J H L K B V G B B V D L G u i.pXuXyXyXuXpXuXuXuXuXyXqXrX@XG.U.uX8.8.qXU.G.yXsXcX:X7XuXlXmXMXmXbXnXnXkXjXjXjXmX%.B s K ! C U H Q C B F I H B s Z P ",
"L H B B K Z V G ~ Q L K K B G K G G C W { pXuXuXyXpXyXpXuXpXuXuXyXrXyXyXyXyXU.0XAXu.yXpXuXyXxXjX,X;X-X X|.K.m.n.1.=. .| b 2.b K W L C Z R T K G F H G G G D D K ",
"' ~ B B G B V B B V F F G B F F K K W ~ ] XXyXuXuXyXyXyXuXuXuXuXuXuXyXyXyXG.3 e.0X@XyXrXuXuXhXfXOX, l l f T W F P V G L T L G K T Z T C G F F G D B G L D G D Q.",
"L V D D V G P V V G N C G s T V B A J K L [ G.i.qXpXqXpXyXrXpXqXrXuXyXH.t 4 7 6 @XqXuXuXuXuXgXcXnXp.N Q C Q W T T ! ! ! F Q W U W T Z G G G R G D D H H H D D G ",
"H R I P G J Q G L ~ L G C u n p p v n v h @XP.VXg.P.G.G.J.T.U.G.P.y 5 4 7 7 4 y yXpXyXuXuXuXgXcXcXeXf ! T S G C C Z W C C / ~ G S Z F T Z G ' H G P L H ( K L D ",
"P D G K G H Q F F G L R Y aXdXzXzXbXmXbXXXuXY.BX8XpXpXpXqX@Xo 8XSXy 7 7 3 5 o U.yXuXpXuXuXyXgXcXnXbXm P J K G G G Z ! N Z Z S Z G G N F R / ~ H B G H F f B J K ",
"J F D G F F L F Z K ~ G Q K.K.K.m.F.m.S.i.uXuX@XP.uXyXyXuXqX3 1X8Xy 4 o 0 3 6 eXuXuXyXyXuXpXcXcXkXmX{ G C Z G J Z Z G T S U Z C T T Z G G G L G B Z Q L B P K K ",
"D G K G G C K K K W G G D x F ( W F f F i.xXpXyXyXuXyXuXyXqX3 4 4 4 3 q.CX3.I.yXyXuXyXpXiXxXcXcXnXnX,.G G P P ! Z Z I Q S Z Z Z C N C V G G G C C L L G Z ! G K ",
"d C C C B C G G T R I I I L G Q.W.S C V p.cXcXsXuXuXyXuXpXu.Y.5 6 qXwXT.0XT.pXpXuXyXiXgXcXcXcXcXkXcX<.K Z T W Q L L E.E.P V K G C G K G P K W N G G s s a K L G ",
"T N F J G K Q W _ H ~ Q I P I K A A V V i.cXcXcXxXgXpXyXG.1X9X4 R.wXwXA.U.uXiXiXgXxXcXcXcXcXcXcXcXcX:.h G Q G G G G I ) P K J G K C G K I P ! C f J V C N Z G K ",
"E F T G K R H G H H ) / G F D I A V V J t.cXcXcXcXvXcXhXoX#Xw.y A.J.J.gXxXcXcXcXcXcXcXcXcXcXcXcX>Xm.).p G W W Q Q Q Q ` I ! K G Q Q C G J K ! K L I K G B B G I ",
"( I C T G Q F G L ~ ) Q Q L D J J P K d :.MXcXcXcXcXcXcXcXcXcXcXvXvXvXvXcXcXcXcXcXcXcXcXcXcXsXS.Z.{.z.D B I K G L Q K G L J G B C K F G K S K ! W G Z S J B F Q ",
"J K J C K T B D G L L H ( ` I ~ / P I s -.S.hXcXcXcXcXcXcXcXcXkXvXvXcXvXcXcXcXvXcXcXcXcX:Xn.x._.j.Z. .P D D G J F D G G G D J J G K C F Z V G ~ Q G I P K G G P ",
"K I P K K K K ) ~ L K L K K P I P P Q I % h.k.F.J.oX#XoXJ.A.cXiXfXhXcXcXcXcXcXcXcX=XD.b.x.{.{.X.j.9 j Q K L H Z G V B G G V G S P W C F V V G Q ! I P S P J K L ",
"( ) ( Q ! Q ( Q D K D D P K I Q.P I / ~ h o.].]._.z.x.(.Z.w.n.* OXwXqXqX#XOXL.F.j.j.M.].].].x.X.X.= P D G H G K K K D K P K L L F W Q Q K V J I / K K Z J J I W ",
"Q Q G G H L G G G L K I P P W.W.L ~ Q.G R w `.].o.9 ).].[.[.z.w 9 9 9 w x.[.{.'.'.O.O.[.].[...X.q M G P W R Q T G Q W F G K K I ~ ~ W ` f C L ~ ! K K P B B D B ",
"F Q L K ) ) P P K P ( D J J E.E.I I L H ~ Y j.`.{.`.].].].).@X%XG.r q z.x.z.'.].{.x.o.o.'.k.X.8 :XzX%.T ` K K G / L W G G Z P J L G H W G W K G W P Z Z V s D G ",
"! L ( V Q ! L ~ L G L D D P I L I Q ~ Q ~ W f o...e j.[.].o.lXD.L.;XfXtX+XH.D.-.0 S.OXl.`.h.% p I.kXxXXXm T K K I I ! ! N P P K V K G G G C W Q Q P I P K L P P ",
"` K G C G ~ K ~ Q.L P L L I Y M m Q ~ ~ W.Q L x = 9 ..z.[.S.-Xo.Z.z.O.r S.D.OX,XtXI.j.C.k.k ( %.>X:.cXcXlXp.E K Q Q G K S K P K L K Q.P ! L / / ! K E.Q.( Q ) I ",
"/.H R F R K ! Q I / K G Q ~ p.#XU.- L G / Q ! ! G j & j.h.>X:.z.l.l.(.O.0 :X:Xy.$.O.z.| d L U =X@.Y OXkXcXkXzXt.R ` S P S S S Z Q.~ Q.W.I P I K Q J P ) Q.L L K ",
"` ~ L G C W ~ G K G Z K L L &.D.U.uXH.r.m T G W ~ ) Q x &.<X* 9 9 9 h.z.-.-.*.w q *.| G K G }.F.( ~.M ,XcXcXvXcX$Xx W W.P S ! ~ W L ~.Q.Q.I P Q.W.~ ) I ~ ) ~ J ",
"K Z I K G G ! K D P L L K G p #XiXD.iXcXlX&X{ Y Q ` Q Q XXJ.f d l j v h z z l W P  .K.l P %.:Xl P P H  .hXkXcXcXcXrX%XM P Z Q.~ I D D P E.E.I I ! L ! Q ~ ~ W.~ ",
"K N P P P J Q J V K ! W W J T #.&.iXfXcXcXcXxXI.n W ) c gX@.P G K Z T G K J W.! ~ G |.}.n tX@.K J Z Z K $.;XjXkX:XhX>Xp.S P W.W.I H L P I ~ I ~ ! K Q P I P ~ ! ",
"! K P I P ~ ~ J P Z Z W ~ Q K K U 2.;.,XcXcXcXcXrXM W }.OXj J ~ I L L W L L ) I P K #.<X%XS.G I L L P G ( j @.J.OXt w.#.P K I Q.I G P L ~ P I ~ W / G Z K G G K ",
"~ K J K Z J K K S K G P L / ) L Q ~ T | K.hXkXvXcXsX[ pX;.( ) L ( ~ I ~ ` ( I ~ P I ~ y.,Xm ~ ! ) L L G K I Q n v H x K P V G K Q J ! ~ P K P P P J Z Z K G K ~ ",
"E.L J ~ ! K Q Q G P L / ) ! Q.I ! W.P I f b n.,XkXcXlX<Xc ! R G K I ( / Q ' I I ~.I I m | K I I ! K ~ L J P K G K G ( Q P G G L K K / P P L I K P K K P Z K K ~ ",
"I I P ! P ! E.! L Q.~ ! I P P P L K I P K K F m ;.-XkXkX;.G S V K P K L ~ !.Q.!.~.E.I P L K I I I P I L ! K Z K L K Q W G G I Q G Y Z G L L J D P I E.K V K S S ",
"P K P I ! ~ W.~ ! W Q ! ! W.! ! I W.P K ! G S P K v :.,XsXv J Z ! ~ E.G K P K ! I ) Q.Q.I I L Q ~ ! W L W K G P P W T G K ~ W P J G F H G P V K D J J I K K J K ",
"V P K I ! P P P Z Z W Q ~ Z V S W.E.J Q Q.L S P ! W G h >.l K K Q P I J G K J P I ~ I P Q.~ ~ I L ! G W K Q ! W.K K L P Q Q _ I L K D K K L G G P I I ) W.I ) ` ",
"B J Q P K Q K P P S G K K K K K P W.I ! ~ ~ ! P ! ! ! P ! P T / ! Q ! K P K K Z ~ ' I ) I K Z G V G K K K ~ P P L P L Q ! I ) ) / ~ I L I ~ Q Q ~ I I I P I I ~ ",
"P ! ! L K P S S K K Z Z S K K ! P K ! ` Q P P ~ W W ! Q Q.~ Q ! L K P W P K E.P I ~ I L E.P Q P J P L I I ~ P P I ) ( ` Q.~ I ~ Q H L H I ) Q K I I Q.` ) K L L ",
"S S K ! G K G ! ! P P S Z ~ Q ~ ! ! W ! K W ! ! ! Q ! W / ) Q L ! ~ / Q ! ! ! P I E.Q.~ ~ W.W.~ T R Q Q ) K L R ~ ) L !.~.' ) ~.( Q ) ) ( ( I I ) I Q.) ) I ( ( ",
"S Z K Q L K K ! ) ~ ~ ! ! ~ ` W.! Q Q W W ! ~ ~ Q Q K Q !.!.~ P K T ~ ! G ! W.~ ! Q.Q.Q.Q.~ ! W ~ / ~ L ~ K Q P ! ~ Q L L ( E ~ G Q ) L Q Q I Q ~ ( W.) ) ( I H ",
"! B Z Z K ! / ! P ! ! W.! Q / ! S ! Q ~ W Q ! ^ ^ Q W ! P ) Q.~ T T ! W.! ! ~ ~ Q ~ W.~ W.~ G ! Q K ~ I ~ G Q Q G W ~ ( Q ` ' ( T ~ Q L W ~ K L K L ( ( Q ` ) Q ",
"! G K G P Q ! ! K ! ~ P G K P ! S ! W S Z W W G ! ! ! W G ! Q Q ^.! / !.~ ~ ! ! Q ! ~ K J / !.P P K ! P Q.K Q G Q W L ) L Q.R W W ~ ~ L H K G G W R G G L Q ~ ) ",
"! K ! W ! W ! K ! ! ! W Q W W Q W K G W P ! W Q Q W Q T G ! Q / ` / Q / Q K Q ~ Q.W.P K W ! ~ W.~ Q.I P Q ! K W ) Q H L Q L F K ( L G P L R W Q Q ) G W K L ( Q ",
"~ K Z S W T T Q K ! ! Z T W K / W ! ! ! G W W T G W W W G W ^ W Q Q Q ~ / ~ ~ ~ / / Q Q ~ / W./ W.W.E.P Q ! ! W.Q.( !.~ ) I Q / ~ I ~ Q L K W W Q ) / G ~ Q I Q ",
"W P ! ! ! W.W ~ W.P W K Z K ! ^ Q Q ! K W Q ! W G K Q W Z T ! Q G T T / Q ~ / ~ ~ / !.` !./ W.W.~ ~ ~ Q.W.K P ) ~ ) I G L ! C ~ Q.~ I P P K K G Q ~ ~ K / ) ~ !.",
"W.~ W.W.Q.~ ` ~.W.! ! ~ Q.! ~ W ! W W W Q P ! S W Q ! W W K / Q G T K Q ! ~ Q.Q.) / ! ~ ! Q W Q ! ! ~ ) Q.! P ` ! Q.~ J J W Z W Q.W.! G / ) ' Q Q ~ Q P G W K W "
};
