/* XPM */
static char *result[] = {
/* columns rows colors chars-per-pixel */
"80 80 245 2 ",
"   c #070706",
".  c #1F160D",
"X  c #1A1D19",
"o  c #34090A",
"O  c #2B1A10",
"+  c #361814",
"@  c #183A0C",
"#  c #172810",
"$  c #1D3613",
"%  c #29260E",
"&  c #293A0D",
"*  c #342912",
"=  c #3A2418",
"-  c #243817",
";  c #383A17",
":  c #242722",
">  c #2C2C2C",
",  c #322C2A",
"<  c #2C3528",
"1  c #323A2E",
"2  c #333333",
"3  c #363A32",
"4  c #3C3C3B",
"5  c #4C0607",
"6  c #570303",
"7  c #4F1D19",
"8  c #620203",
"9  c #4F320D",
"0  c #472716",
"q  c #4A3616",
"w  c #573718",
"e  c #623D0A",
"r  c #613E15",
"t  c #572828",
"y  c #523C2A",
"u  c #653733",
"i  c #164606",
"p  c #1C450C",
"a  c #1C4B0B",
"s  c #165A05",
"d  c #1A5D07",
"f  c #1C540B",
"g  c #1C5D09",
"h  c #274C0F",
"j  c #344C0F",
"k  c #22540D",
"l  c #2B500F",
"z  c #235D0D",
"x  c #284715",
"c  c #244E12",
"v  c #394818",
"b  c #225311",
"n  c #245B12",
"m  c #2B5A16",
"M  c #325819",
"N  c #176207",
"B  c #1B6507",
"V  c #1D6B07",
"C  c #1D640A",
"Z  c #1E6B0A",
"A  c #1F7106",
"S  c #1F710A",
"D  c #206C07",
"F  c #22640C",
"G  c #226D0C",
"H  c #296E0E",
"J  c #227507",
"K  c #24730D",
"L  c #29750E",
"P  c #26790D",
"I  c #297A0E",
"U  c #256411",
"Y  c #2B6313",
"T  c #266D11",
"R  c #2A6D12",
"E  c #2C6518",
"W  c #326618",
"Q  c #267411",
"!  c #2A7512",
"~  c #277911",
"^  c #2B7B12",
"/  c #2E7719",
"(  c #2E7B19",
")  c #317515",
"_  c #317C15",
"`  c #357919",
"'  c #327D19",
"]  c #324B24",
"[  c #385A25",
"{  c #3D413C",
"}  c #3C5432",
"|  c #3F7022",
" . c #514B1A",
".. c #4B541B",
"X. c #7B480A",
"o. c #684817",
"O. c #7A4B19",
"+. c #7C5417",
"@. c #444827",
"#. c #465529",
"$. c #58542A",
"%. c #534F34",
"&. c #495A35",
"*. c #744A22",
"=. c #65522B",
"-. c #7C5429",
";. c #664737",
":. c #6A5639",
">. c #725936",
",. c #4A6D2D",
"<. c #56653B",
"1. c #6E6A39",
"2. c #7A6438",
"3. c #653F40",
"4. c #444444",
"5. c #484747",
"6. c #4C4C4C",
"7. c #555B47",
"8. c #525252",
"9. c #5A5A5A",
"0. c #654C43",
"q. c #685849",
"w. c #785B4C",
"e. c #536641",
"r. c #6B6749",
"t. c #7A674B",
"y. c #7B6758",
"u. c #687055",
"i. c #7A7755",
"p. c #666564",
"a. c #6D6D6D",
"s. c #70706A",
"d. c #757575",
"f. c #7A7A7A",
"g. c #804A0A",
"h. c #87531D",
"j. c #925C1B",
"k. c #A76919",
"l. c #B06E12",
"z. c #AF721D",
"x. c #B57219",
"c. c #8A5B22",
"v. c #8E5E2C",
"b. c #956429",
"n. c #8F6C3E",
"m. c #956737",
"M. c #A66C25",
"N. c #AC742C",
"B. c #B17628",
"V. c #B17B37",
"C. c #C97F13",
"Z. c #C57F20",
"A. c #8B5949",
"S. c #846646",
"D. c #9A6D45",
"F. c #9D7247",
"G. c #886B57",
"H. c #956B54",
"J. c #987656",
"K. c #A5774C",
"L. c #A37A57",
"P. c #8D7B65",
"I. c #977B65",
"U. c #A27C68",
"Y. c #2C820F",
"T. c #2E8113",
"R. c #328215",
"E. c #33821A",
"W. c #38851A",
"Q. c #3A8821",
"!. c #43811F",
"~. c #738E3E",
"^. c #7F8059",
"/. c #D48714",
"(. c #DA8C17",
"). c #F0960E",
"_. c #FA9C0C",
"`. c #E08B10",
"'. c #E99416",
"]. c #F59D14",
"[. c #DA8F21",
"{. c #899055",
"}. c #A98157",
"|. c #B28356",
" X c #9B856A",
".X c #8E8474",
"XX c #A7856A",
"oX c #B48966",
"OX c #A88B74",
"+X c #B58E71",
"@X c #AB9375",
"#X c #B3947B",
"$X c #BA9A7B",
"%X c #CC935C",
"&X c #C6946A",
"*X c #C29D7C",
"=X c #CD9F78",
"-X c #D69E74",
";X c #C8A27C",
":X c #DCA777",
">X c #E7B07F",
",X c #898988",
"<X c #909392",
"1X c #949594",
"2X c #989897",
"3X c #9A9A9A",
"4X c #AF9881",
"5X c #BD9D82",
"6X c #A5A6A6",
"7X c #B4B5B4",
"8X c #C28E84",
"9X c #EB938F",
"0X c #C4A485",
"qX c #CBA685",
"wX c #CCA886",
"eX c #CCA789",
"rX c #CCA889",
"tX c #D3AA85",
"yX c #DAAB87",
"uX c #D3AC89",
"iX c #D3B18C",
"pX c #DDB38D",
"aX c #DEB892",
"sX c #E2AF86",
"dX c #EBB383",
"fX c #E4B28B",
"gX c #EAB78C",
"hX c #F0B784",
"jX c #F3BB8D",
"kX c #E4B991",
"lX c #ECBA92",
"zX c #F5BC92",
"xX c #F8BF95",
"cX c #EEC297",
"vX c #F4C195",
"bX c #F5C499",
"nX c #F6CCA4",
"mX c #B8BEC0",
"MX c #CBCBCB",
"NX c #D7D7D7",
"BX c #D7E0E2",
"VX c #E5E7E8",
"CX c #EDF1F2",
"ZX c #F5F9F9",
"AX c #FDFDFD",
/* pixels */
"Q.! P ! E.T.' / ( ~ ~ ~ Z ^ ( ! ( ( ( ( ! / T.! T T Z ! ' ! R ( ! ^ E.( L E.` ^ ! ^ ! ^ ( T.( P ! _ _ ! ^ I ^ ( I Y.R.I I I H P G _ _ H ^ K K ( _ ` W.' G ) G K ",
"P K Q ! ( E.( ^ ^ ~ ~ ^ U ^ ~ ~ ! ( ! ~ ! K ! Q ! ~ ! ' ( ^ ~ T.( Q Q ( R.! ^ ! ! ( Q ~ ~ P L Q ! ^ _ ! ^ ^ ^ ~ ( T.^ ! I L _ L ^ _ K L P ~ ^ ^ ^ ! ! K K ! L J ",
"K T.^ ~ ~ T.^ T.' ^ K ! ! ! H ~ / ! Q ! / ! ! Q ( ! Q ! ! ~ ~ E.Q T / ( _ ( L Q Q ~ Q Q ( ^ K Q T.T.( ^ ! ~ ! G L ~ ^ Q Q Q _ R.^ ^ ! ^ L L ^ ^ ^ Q _ ^ ! H R K ",
"T.( ^ ! ^ ( ( ( ^ ~ ! ( ^ ( G G T.^ ! ^ Q ! ! ~ ^ ^ ( Q ! ~ ~ ^ ^ Q / ^ I ! Q Q Q Q Q ( ! ! K K ^ I L ( ~ Q S Q Z P ! P ! _ T.^ ^ P ! ^ ! Q R ^ ! L ) ! ^ ! ( ! ",
"T.( Q Q ~ ~ ~ ~ ! ~ Q ~ T.( ~ G ~ ! ( ( ^ ~ ( ! ~ Q ~ ~ K K Q ~ Q ! E Q L L ( ! / Q / Q T Q G ~ ( P Q ^ ( K ! ' Q K Q Z P ! ^ ^ ^ P K ! ( ` ! Q L L _ _ R.! ! ` ",
"^ K T S Q Q Q Q ! ! G K K Z K ( ~ ! ~ G K ^ ! K K ^ ^ P ! ^ ( ~ Q ! ~ K ^ ( ( ! ( Q Q ! T ~ G K ! Q G G K Z Q ! H Q ! Q K ( P E.^ P ! ( Q ! ~ S K H P ^ _ H ( ` ",
"S Z Z T S C T Q ^ ^ K ! R G ! I K ! ^ ~ ~ ^ ^ ~ Q ^ ~ K ^ ! ! ^ T.T.^ Q Q ! / ! / / / ! Q T Q H ! ! L ~ P K ~ K G ! R ) T K P ^ ^ ~ ^ ^ Q R T K ^ _ I L _ ! _ ' ",
"Z Q Z Z ~ S Q ~ Q ~ Q Q Q ^ P P P ~ ~ Q P P ~ K ! ^ ^ ~ ^ P ^ T.( ! Q Q / Q T Q Q ! S K ~ ~ ! L ! G ~ ! Q G H Q ! T Q R ! K Q H H H F T R ! ! ~ L ^ K K ^ K Q ! ",
"Z Z Z S Q S Q ~ P ~ P ~ ! ^ P K K ~ ! T G Q G Q ~ P ^ ^ P K ( Q ~ ! ^ ~ ^ ( H ! ! Z S Q ! I ( G V Z G Z Z G P Z Q R G ! / ` ! ) ! ! R ! K Q U K K G ! K P H T H ",
"S V K K S ~ ~ S P K G P ^ ^ ^ Z ~ ~ ~ ~ Q Q ~ ( ! ^ ^ R.P T.T.! ( Q / ! Q Q K ! / K ^ ! ~ P ^ ^ K ^ Q G C G C C R T T ! / ` Y ) ! _ H F K ! G K P K K I P L ! ` ",
"~ ~ ~ P P P Y.Y.^ P ^ K Q ^ ( ~ ^ ^ I ^ P P T ( ^ ! L ^ I ! ( ~ ^ ^ ! ~ Q ! ^ ~ ~ ~ ^ ( Q ~ ~ E.! ! K Q ! ^ K G G H H G ! / F H H ! Q G ^ I ( P P P ! L Q ! ) ` ",
"( Z S ~ ~ ~ S Y.J J P Z K ~ K T.P ~ ~ P K ~ K P I I L ^ ! T ! / Q ~ K T Z Z K P K P ! C Z S Q ^ ^ ^ ! ~ T ! ~ ! H L P ( ) _ ! _ ! K K I L ! G K L Q ^ L ! L _ ` ",
"( Z G K I P P S J Z P P A J ~ ^ P I G ^ K S I I ^ P ! P ~ ~ E.Q Q ~ Q ! S Q K ~ P ~ H G T S S f [ [ b C S ~ ~ Q ! H ! T.( L I Q ! ^ _ _ ^ _ T Z T I I ! K _ _ ! ",
"Z Z Q S P ^ Y.A K K ^ ~ I ~ Y.I P P ^ I P P Y.T.^ K J K Z S ~ ~ K S S T Z Q K G K ! K C E e.p.3X7X7X6Xd.8.b Q Q T K Q ! I P ! H Q ! I T.^ ! K ^ ^ ( ^ P P _ _ Q ",
"P Y.K K J K P ^ ~ ~ P P ^ P S ~ ~ I P P P ~ P P T.I P P K S ~ J Z V Z ^ Q ~ G Z n } s.<X3X3X3X3X3X6X1X1X3X2X} T ! ~ K P Z Z ~ K K E.I L I P Z K K J P K ( ^ ^ G ",
"K P S ~ J ^ ^ R.^ ~ ^ ^ P T.( T.P P P S K P P T.^ ~ K P Y.I ^ ~ ~ K C T Q a ; { 3X3X3X2X3X3X3X3X3X3X3X3X2X3X2Xu.n Q K P K C ! P ^ ^ K L K P S Z Q Z K G Z U Z g ",
"Q Z ! S Z ~ ^ ~ ! ^ ^ I T.^ ^ P I ^ I ^ I I P I K K L ! I G G Z Q ^ G H Y = = ,Xf.3X2X3X3X3X3X3X3X3X,X3X3X<Xa.&.g Q J J I J ^ T.T.E.Q I ^ P P S Q K S Z g Z N C ",
"! Z Z Q Z S ~ Y.K K L ~ ~ P I ^ ^ K Q K L m ,.M G Q ^ ! ) K ~ G Z H k * = 0 = f.f.,X3X<X<X<X,X,Xf.d.d.f.a.6.< U ! Q I I P ^ ^ T.^ T.! T.R.J T Q ~ Q S G G T G R.",
"T.Q S S S J P K Z G Q Q ^ ( ^ T.H h i. X7.pXxXaX#.S ^ Q H n c v =.S.= 9 0 0 + s.f.f.f.a.p.9.8.8.8.6.4.6.2 $ z K I I P K K T.K Z Z ~ G P P Z Z Z Q T Z Z ! Q G H ",
"S N V ~ K ^ ~ K ^ I G P T.~ L L | 0XzXsXsXzXzXOX0.j $.>.v.m.V.V.N.N.0 + 7 0 0 5.f.9.5.8.6.8.8.6.6.4.2 $ F L J P K P J P K I ^ I K ^ ~ K K K C C S Q Z U C Z K H ",
"V G T Z K Q ^ K P K H Z P I ! L ~.xXzXzXzXjXzXU.m.V.V.B.N.N.N.M.b.h.+ O O . = , 5.2 4.4.4 2 > < $ $ f I T.^ I I P Y.T.Y.V K T.^ P K G G Z P G G C Z F G Z G K ! ",
"K L H L G K ~ S V V J G ( ^ ^ L ~.zXzXzXzXzXxX*Xh.B.M.j.O.r q & k z F H G U % O : > # $ @ f S U p b I R.I R.R.^ K I T.Y.J V P I L I L L ! ~ K G Q T T R H G Z G ",
"P Q ) R Q G C V K ^ I P K K _ ! ~.zXzXzXzXzXzXyX% ; l m F C ! Q Q K ! _ Z ! S a f N T S T Q a 3 : ( R.W._ R.W.^ I I I T.I I Y.T.G G G ^ E.( ! ! _ ~ R T K K Q H ",
"` ! Q ! L Z K ~ Y.R.R.R.! I I ( {.zXzXzXzXzXzX=Xa ! ! ' ' ! Q G ! ^ K G Q Q U : ] ] f T T c 4 4 b ~ C f a f F Q I L J I S ^ R.^ K ^ G P P K Q P Q G P H K Z T ! ",
"W.I K I ! L J I _ R.R.I Q L ! H ~.vXjXjXzXzXjXH.Q P G R ! R K I R.L P V Z K Q b { { 4 $ C 1 > 2 a : > %.6.4 $ Y R._ K P K Y.^ Y.P P G T G H G K K P ~ Z ~ ! G K ",
"P P G L Q ~ I P L L _ G ^ I L ( ~.jXxXjXjX>XL.l K B C Q _ _ T K _ I H c - @ b R < 4 2 4 X     > 4 4 2 2 < U I L L ^ P I I _ G K L G H K G T C H L G G V V Q K K ",
"K T L ( H C D P D P L D ^ K H ^ ,.K.|.%XK.j E F C Z Z ~ ! I K K _ @ { 4 { { y 3 X 4 2 2 X X : 4 2 2 : : T P P L L R.I ^ K K V S K H ' ( K C G Z C C T Z Z T K Z ",
"H T.L H H H D K L I L J K P ^ Y.Y.F t.>X2.^ ^ K K K H ! L K K I ^ H c 1 4 2 2 2 4 4 2 > p.f.p.> 2 2 :   : < p G G I ^ ^ P ^ Y.I K ^ ! G G G Q G T F T C Z ! g K ",
"H ^ L L F D D J G J P I I G K P R.L  XjX=.I ^ ^ T.Y.^ ^ I I G I P ! G C > 2 2 2 2 2 2 MXAXAXAXMX2 > > > > 4.6.- D I ^ ^ G P ^ P ~ ^ ~ H T g Z Q R U C C B ! K L ",
"G G G G K L V K K G K K K Q ' ~ I H +XhX..P S S S Q ! T.^ L Z P P K G f $ 2 2 2 2 > <XZXAXAXAXAX3Xa.BXMX4 4 2 4 @ D L ^ G V P P S Q N d C Z V U C U T Q K ! G G ",
"K I I I ^ ' ! G V P D ! H ^ ^ I Y.F ;X>Xj S V S Z Z ( ( ^ K ^ H c 1 2 4 4 4 : 2 q.%.BXAXAXAXAXVXNX6XCXAX2Xi F z f C G V L G G P S ~ S U C N V Z Q C Z Q K K ~ Z ",
"K I R.I P I ) I G P K G Q ^ R.I Y.W fX:Xp G V J K Z P ^ K L n 1 4.2 2 2 > 9.5XnXvXI.BXAXAXAXAX6Xf.p.d.AX6XF K P L K K D L I H ! Q C Z C S C Z Z Z V Z V G Z C N ",
"H K K G J K G J D J G G I I K L I E kX&Xi P V K J P K P P F { 4 2 < > @.iXbXzXzXzXqX<XZXAXAXAXVXf.MXVXZXa.m Q ! ' P P K I P G L P U G d Z G V Z Q C K C C Z C s ",
"H H D D V J L L ' I L I G G D P P #.lXK.s V V K Z S Z G K # c F C f r.lXzXlXlXyXuXrXP.mXZXZXAXmX, 1XmXa.#X@Xx Q Q H P K K I W.I G C Q G U C C H U G T K G G Z Z ",
"D F D J G P I L Y.I J D L H ) _ I <.vXS.F V P K V Z D G G K K _ G u.xXzXzXpXeXeX0XeXeXP..X<XP.9.4Xy.q.OX0XeXXXz G K S Z Z ^ E.P Z G Q T C d N G T C Z G F G D F ",
"F L L H L I I K J I I L I R._ L C r.jX:.G ! P J S V B G K K ! Q &.lXzXlXuXeXOX0.$XeXeXOXI..XP.5XeXeXeXeXeXeXeX] H G Z g Z B ( T.G K K Q F d g C K C g G H K D K ",
"C R.I I J I _ J J L I R.^ R.I I H I.jX$.N J J I Z A V S D T.K M kXzXzXtXeXeX@Xy.eXeXeXwXeXqXeXeXeXeXrXeXrXeXrX&.K P P F B C K ! F G G ' G G G d Z C F B D L G ! ",
"G I G L G K I I K L I _ L I H K d $XzX@X X{.u.<.&.] x p i k a P.zXzXtXrXeXeXeXy.eXeXrXwX*X0X*XrXeXeXrXrXrXrXqX#XP.] h L G C C ( K Q I K G G H D F Q K F L ^ K I ",
"D H z K Z J P Y.L G J I G I V K ,.vXdXdX>XhXvXvXbXbXbXcXkXiX;X*XlXfXeXeXeXeXI.s.0XeXeXqX*XqXeXrXeXeXeXrXrXrXeXrXqX0X{ g T H P ( P P G B D L ( L F H L L K R.I _ ",
") K P L G J A J V d J F J P G ^ ,.2.@.$.$.1.v.S.F.K.|.&X&X-X:XdXzXuXeXwXqXy.NXVXy.qXrXrXrX0XrXrXeXeXeXrXrXrXrXrXrXeX4Xg Z G K K F G H V F z ! Q ! H G D J J I D ",
"K K D D V V B J C F K V D P G K P I L ^ F G ! z F z z l z & XXyXlXrXrXrXwX5X1X6X5 ;.eXeXeXeXeXrXeXeXeXeXrXrXeXeXwX0XG.p C K C C g H Z N C f H Z D F G G D V D C ",
"D B F V J B K K L H H B B G V B V A K G D ! I d K H D D J <.bXjXlXrXrXrXeXeX#X;.8 8 7 y.5XeXeXeXeXeXeXeXeXrXrX4Xy.i.b Q G S Z B N K ~ F U H ! C B G L H B s G P ",
"L L D V P D V V ! ! K H J g G K G V G L G I R.! _ L _ H z OXjXvXlXrXqXrXeXeXeXXX6 8 8 8 6 u s.U.XXXXXX XI.P.q.6X6X#X7.b a f f F Q L V U Q H H Z F D D H F D K J ",
"` I d B G V V B V V V H G C G F K K Q ! ^ _ W.L _ I D D z wXjXzXjXrXrXrXeXeXeX5Xo 5 6 6 8 6 6XVXt u #X5XeXeXOXNXNXy.#X#XkXaXaX{.Q Z U C G F C G D F G L D G D Y.",
"H V J D B V P G C G C g G f R D V J D K H _ I H ' K R.I n aXzXzXzXtXrXrXrXrXrXeX;.5 o o 6 5 2XMXt w.eXeXrXrX$XP.@XwXiXw.D.K.L.1.Q T Z Z G G R G D D H K H G V K ",
"H R P K G K L H P T.K Z D V ` D B L ^ K K L P _ K H _ L M lXzXxXzXzXuXrXqXrXeXeX5X+ 7X,Xo 6 8 6 6 y.qXeXqXrXrXuXeXuXcX#.g U F H Q C C G G K ` H K K H H ) H K F ",
"L D G K C H R F F G P R g V G s B I G K G T G R.P G F N [ zXxXjXzXzXzXfXuXrXrXeXrX X7XMX4X8Xu 8 t p.I.eXeXrXeXrXpXzXvX&.V Z G Z S S C Z R ! ! H V V L F d V J K ",
"P D G G F D L G Z G ^ G G K P Q C ^ V Z Z L L I S J G f ;.lXjXzXzXzXzXzXzXgXpXuXrXrXOX0.9X9X9X7 3.CXq.OXeXtXpXlXzXxXcX&.S U Z C T T C K U T L G C G ! L B K G P ",
"D C K H G G G K Q Q P G D K H W.^ Q V T V Z P Z J P C k B.K.yXxXzXzXzXzXzXxXzXzXzXgXkX9XU.H.A.t 7 .X+XI.lXzXzXzXzXzXcX[ S Z Z Z C C N V Z G Z C C L L G Z ! G K ",
"f C N B N C H Z R H L L I L H R.T.A N Z S Z V N P ~ Q C j.].k.L.fXzXzXzXzXzXzXlXzXzXzXzXxXxXzXgXzXxXzXfXzXzXzXzXzXzXaX; J V K K Z Z K G K P Q N G G d N s K I G ",
"T C F K G K ! Q ! R ^ ) I L P K A A A V K ^ ^ K H K Z V ..'.Z.(.j.U.yXzXzXzXxXzXzXzXzXzXxXxXzXzXzXzXzXzXzXzXzXxXzXfXJ.y P J D K H C F L I K ~ C d K V C s Z G K ",
"W F G G K H H G R H _ ^ K C D P A V V A Z C ~ K Z P K P F r X.O.).'.N.v.XXlXxXlXzXzXzXzXzXzXjXlXzXyXG.fXxXxXgX+XA.b.-.j I P G H ! ^ C Z K K I K H L P K V N G I ",
"^ L Z Z H Q z K L _ _ ! ! L D J J P P P P A S N Z K K ^ I & X.X.z._._.].k.c.D.H.U.qXgXzXbXbXxXy.A.U.=.k.k.M.M.C.].(.w k K K V V C K F G K S K ~ K G S Z J V G ! ",
"G P G F K H B V G K L H ! ` ^ ^ ^ ^ P J P P S S S P K L ! k 9 X.r '._.].O.r /.].(.l.b.0 r w w w c.Z.k.]._.O.r x._.(.& F H Z K D G K Z F Z V G ^ ! G ~ I K G G P ",
"K I L K K G K _ L L K P P G I I K ~ ~ P S J Q Q P L Q L m @X@X9 X.j._.B.b.j.'._.].].(.[.O.= = y #Xb.]._._.(.x.'.`.+.d G G D V S K ! F F V V G ! ! ~ P S P J J L ",
"I _ / ! ~ ! ^ ) G P G D L P I I P I ( ^ K K Q Q K Q ) &.uXzX*X@ * O.)./.H.D.-.k.k.w 0.XX$XqXfXsXsXt.(._.'.j.O.k.+.z D K K P L K C Q ^ Q K V G P T.K G Z J G L Q ",
"! ! G T H ! H K G P K P J L Y.I L ^ R.K ! ! ^ Q G [  XvXzXoX;X[ F  .x.C.c.XXI.OXtXyX&XJ.:.m.j.o.S.#Xl.).X.o.e % k L Q F G J K Q ^ ( K ' C C ~ ^ ^ K P K V B D d ",
"F ! P G _ ^ K K P K _ D J P R.Y.I L L H ^ ^ T M  XvXjXzXsXM $.$Xz H l +.x.-.J.G.t.S.y q z.'.`.(.*.kX*./.w 9 & H ! L Q G G V @ <.L K H R H T K K ~ K Z A B d D K ",
"L I ^ Z ^ ! L ^ K H K D D I I I I ! ^ ! ^ U <.pXlXjXzXjX2.( F J.i.L ^ R j r O.;.S.H.S.q k.g.w e 9 L.OXq h H K K ^ ^ ! T c M 0X{.V G Z G V C ~ ! ~ K I P P H K P ",
"E.G F V G ^ K ^ _ L L L L I I I P ! ! z <.{.lXzXzXjXzXJ.n ! G l ;X&.~ G $.n.l Y M ..$.o. .* v j h $.pXM ^ I R.~ Q c i.;XkXcXsX^.L P R.I ~ Q / ^ ~ J _ R.I ! _ I ",
"!.H R F T P ^ I ^ ^ H G ) _ ! K ^ ! K i.bXzXsXxXzXhX}.m T ^ G G $.;Xm W qX#.G L P P ! Q G L _ ! ^ m =Xr.I I _ n r.pXxXzXlXoXG.1.T.^ W.T.I P P P ! K P ( R.K L P ",
"' ^ L G C G ! G G K Z G G I ( G G L L i.H.U.L.;XoX1.Y ! T G T C C J..X XL.U K I ! I L K H K I I _ E.>.rXn _ M $XvXzXzXzXsXoXXXn ! K R.R.R.P L T.R.^ ^ L ^ ( I K ",
"K Z P K G K I K Z P P P P G I I K G L Y ] v q.@.m _ ! ( Q G T Z K k ;XyXj H P I P I ^ J P J ~ P I K l sX<.[ iXzXzXjXjX:X$.f R ^ L G D L Y.Y.^ I I P ^ I ^ ^ T.^ ",
"P N K I P G P G V P ! P H G ! ( K Z G T P P K ~ G Q _ P ~ K K H L C 1.S.G K Y.I I I P P P I Q J K Z C L.$XuXzXjXjX&X>.l G P R.T.I L K I I I I I ! H ! P ^ P ^ ! ",
"~ G P ^ K ^ ^ K K S Z ~ ! ^ K K I I P K L I I L ! K I L L H K ^ ! L F F L Q R.P P P L J I I I L I L G t.jXxXdXL.$.k L L I P I R.I G P I ^ P ^ L Q ( K Z K Z G K ",
"^ K J A Z J S K S K K K L ( ( H ^ ^ K K Z H L L H G ! ^ ! ! _ R _ ^ I ^ ` _ I ^ I I R.L I I ^ I ' K #.jXhXL.@.W ^ I L L P G G K L G ^ ^ P K P P P G V V K G K I ",
"T.L J T.^ K ! ~ G L ^ ^ ^ ^ T.^ ^ ^ I I G K K I K I K ! ^ ~ L G P L ) ^ ! ` I I R.I I G G L I I I G :.U.@.F D G K G ) ! K G H K K K ^ ~ K L I P P K K P S K K ^ ",
"I I P P P P ^ ~ ^ ^ ^ ^ I I P P L P I P G K P ~ G K Z Z K K S C G P L K ! E.W.R.W.R.I L K P L ^ L P H G ! K V K L K ! Q G G L I H U Z G P P G Z P I Y.P Z K S S ",
"~ K I I ~ ^ T.I ~ T ! Q ~ T.~ ~ P T.P K P K S P Q ! Q Z G ^ K V ^ ^ I J K I K ! ^ R.R.R.^ P K I I ~ Q H I K G I L K Q G K ( Q P J G F K D P V K V J P I J J K K ",
"V P J P ^ P P P S Z Q ~ ~ Z Z S T.Y.G P _ K S P ~ S K S K Z G K ^ K I K K S K P L _ I I ^ ^ _ ! K ~ T P L L ~ ^ K K ! ~ ~ ! ) I L K G K L L C H I L L I R.L _ R.",
"B K ~ K K ! J P P S H J K K K K P T.^ ^ ^ ^ I I ~ ~ ^ Q ~ ~ Q ^ ^ ~ ~ K J J S Z I R._ _ I K Z V V K K H P ^ I P L K ! ! L I ' _ ! ^ I L I I L ^ I L I L I I ! _ ",
"J ~ ^ ! K ~ S S K K C Z S P K ~ P J ! ( ! ~ ~ ~ ! Q ! ~ T.^ ! ! L K Q Q ~ ~ Y.P I I L P T.P ^ P J K L I I I P P I _ ^ ' R.^ I _ ! R K H ^ _ ! H I I W.' _ K K K ",
"K S K ~ H K K P P I K S Z ^ ^ ^ ^ K ~ ~ S Q ~ ~ ~ ! ~ ~ ( _ ^ L ^ ^ ( ~ ~ ~ I P I I Y.^ T.~ T.^ Q R ! ! ^ P L R ^ _ L E.W.` _ _ ` ! _ _ ) ! I I _ I _ _ _ ! ) ) ",
"S Z G ~ T K K ~ ( ^ ^ P ~ ! ( ( ~ ! Q Q Q Q ^ ( Q / Q ! ' E.^ K S T ( Q T ~ T.^ ^ R.R.W.R.^ ^ Q ! ^ ( ! ! Q ! P ^ ^ L Q L ) ) ) G I ! L ! ! ^ ! _ ^ _ _ ^ _ I L ",
"P C Z Z Q P ( ^ P ~ Y.T.^ P ( ! K ~ ~ ( ! ~ ~ ^ ~ ^ ~ Q K _ T.( T T ~ T.~ ~ ~ ^ ~ ^ ^ T.T.^ Z ^ P K ^ I ^ G K ~ K T ^ ) ! ' ` ) R ^ ! ! Q ^ L K H L _ ) ! ' _ ! ",
"~ K K G P K ^ P Q ~ ~ ~ G K ~ ~ S ~ Q S Z Q Q U Q Q ~ Q G ~ P ^ Q.^ ^ E.~ ^ ^ ~ ~ ^ Y.K Z ( E.P P K ^ P _ K ! H Q ! L _ L R.R L Q ^ ^ ! H K G G Q R G G H L ( _ ",
"~ K ~ Q ~ Q ~ K ~ ~ ~ ~ ! Q K ~ K K S Q K ~ ~ Q ! R ~ T G ^ / ^ ' / ! ( ! K P ( ' T.~ H ! ( ! T.( T.I P ! ^ K Q _ ! L L L L F P ` P G P H T Q ! ! ( G Q K Q ^ ! ",
"^ K S S Q T T ! K P ~ Z U Q Q ( Q ~ Q ! G Q Q Q Z Q Q Q G Q ( T ! ! ! ^ ( ^ ! ^ ( ^ Q ~ ~ T.T.( T.T.Y.P ~ ~ ^ T.R.) ' ^ _ I ! ( I L ^ ^ ^ K K Q L ^ ^ H ^ ! L ^ ",
"Q Q ~ ~ ^ ^ ~ ^ ^ ~ S K S P ~ / ! ~ ~ Q Q ! ! ! K Q ! ! Z T ~ ! G Q T ( ! ^ ^ ( ^ ( E.' ' ' T.T.^ ^ ^ T.T.K P _ ^ ^ ^ Z L ~ Z ^ R.I I K P K K H ! ^ ^ K ( ( ^ E.",
"T.~ T.T.T.( ' E.T.~ ~ ( R.! ^ K Q ~ Q Q ! ~ ~ S S ~ Q Q Q Q ^ ! G T K ! ~ ^ _ R._ ( ^ ^ ~ ! Q ! K ^ ^ ( _ ~ P ' ^ R.^ K K G Z T R.T.^ G ( _ ` ! ( ! L P H K H L "
};
