/* XPM */
static char *result[] = {
/* columns rows colors chars-per-pixel */
"80 80 223 2 ",
"   c #070702",
".  c #070803",
"X  c #0A0B05",
"o  c #0E0F09",
"O  c #0F100A",
"+  c #12130D",
"@  c #151610",
"#  c #171812",
"$  c #1A1B15",
"%  c #1E1F18",
"&  c #201F18",
"*  c #1F201A",
"=  c #3E2E0E",
"-  c #3E300F",
";  c #22231C",
":  c #3F3213",
">  c #2A2B24",
",  c #2B2C24",
"<  c #34352D",
"1  c #363A2E",
"2  c #3B3828",
"3  c #363730",
"4  c #373830",
"5  c #3B3C34",
"6  c #3F3F38",
"7  c #4C370C",
"8  c #423618",
"9  c #46391A",
"0  c #413B26",
"q  c #155906",
"w  c #1A5E07",
"e  c #1C5D09",
"r  c #2D4E1F",
"t  c #285C17",
"y  c #176207",
"u  c #1C6507",
"i  c #1D6A07",
"p  c #1D6409",
"a  c #1E6B0A",
"s  c #1F7007",
"d  c #1F710A",
"f  c #206B07",
"g  c #21660B",
"h  c #226D0C",
"j  c #296E0D",
"k  c #3E690D",
"l  c #217307",
"z  c #24730D",
"x  c #29750E",
"c  c #26790D",
"v  c #297A0E",
"b  c #35730F",
"n  c #296715",
"m  c #256D11",
"M  c #2A6D13",
"N  c #306918",
"B  c #326D1D",
"V  c #267411",
"C  c #2A7512",
"Z  c #277911",
"A  c #2B7B12",
"S  c #2E7619",
"D  c #2E7B18",
"F  c #317614",
"G  c #3A7616",
"H  c #317C15",
"J  c #3B7D15",
"K  c #32751B",
"L  c #327C19",
"P  c #3A7B1B",
"I  c #35482A",
"U  c #365727",
"Y  c #3E4136",
"T  c #3B4832",
"R  c #3F4138",
"E  c #3E5532",
"W  c #3B682A",
"Q  c #387923",
"!  c #5B4714",
"~  c #66480C",
"^  c #6F5007",
"/  c #78590D",
"(  c #644B12",
")  c #694D15",
"_  c #6C5113",
"`  c #7A5813",
"'  c #7B5C1C",
"]  c #4C6A0E",
"[  c #59630E",
"{  c #586D15",
"}  c #477817",
"|  c #577819",
" . c #68610E",
".. c #7B600F",
"X. c #716F1A",
"o. c #64771B",
"O. c #4B4228",
"+. c #554926",
"@. c #5B4F2F",
"#. c #43443B",
"$. c #454A3A",
"%. c #46493D",
"&. c #45573A",
"*. c #585038",
"=. c #7E5E20",
"-. c #685934",
";. c #426A2E",
":. c #44782C",
">. c #456636",
",. c #487934",
"<. c #517F3D",
"1. c #7E642F",
"2. c #777C24",
"3. c #776337",
"4. c #4A4A43",
"5. c #4C4C44",
"6. c #4E5345",
"7. c #4F5048",
"8. c #515246",
"9. c #595545",
"0. c #54544B",
"q. c #555A4B",
"w. c #59594E",
"e. c #575750",
"r. c #5C5C53",
"t. c #605F56",
"y. c #4E6740",
"u. c #556449",
"i. c #587647",
"p. c #5E6055",
"a. c #7A6A44",
"s. c #616156",
"d. c #646957",
"f. c #64645A",
"g. c #67685B",
"h. c #696A5E",
"j. c #726B53",
"k. c #657655",
"l. c #6D6D61",
"z. c #706F60",
"x. c #6F7063",
"c. c #727266",
"v. c #777B67",
"b. c #767669",
"n. c #78776A",
"m. c #77786A",
"M. c #7B7A6D",
"N. c #7E7E71",
"B. c #845F18",
"V. c #846A14",
"C. c #886719",
"Z. c #906C15",
"A. c #946D1B",
"S. c #99751E",
"D. c #A5781A",
"F. c #876523",
"G. c #946E24",
"H. c #8B7827",
"J. c #9D7423",
"K. c #987628",
"L. c #846A36",
"P. c #A67B25",
"I. c #A47A2B",
"U. c #A87D33",
"Y. c #927B4A",
"T. c #807F71",
"R. c #2E8113",
"E. c #318215",
"W. c #33811A",
"Q. c #39831B",
"!. c #358818",
"~. c #3C8324",
"^. c #4A821D",
"/. c #43852B",
"(. c #5E8524",
"). c #4A8334",
"_. c #4B8236",
"`. c #53873E",
"'. c #6C8424",
"]. c #768425",
"[. c #5A8545",
"{. c #658D4F",
"}. c #6B8859",
"|. c #70885E",
" X c #6B9356",
".X c #73925E",
"XX c #778667",
"oX c #789264",
"OX c #7F8072",
"+X c #888328",
"@X c #97842E",
"#X c #AA8327",
"$X c #AB822D",
"%X c #B38829",
"&X c #AC8232",
"*X c #A98A32",
"=X c #B68935",
"-X c #818A6B",
";X c #838375",
":X c #878975",
">X c #868578",
",X c #888779",
"<X c #8B8B7C",
"1X c #908F7F",
"2X c #879974",
"3X c #8C947C",
"4X c #93957E",
"5X c #8FA479",
"6X c #8E8F81",
"7X c #908F81",
"8X c #939384",
"9X c #989886",
"0X c #989789",
"qX c #9C9B8B",
"wX c #9F9D90",
"eX c #A09F8E",
"rX c #A19F90",
"tX c #9BA189",
"yX c #A2A28F",
"uX c #A5AB8E",
"iX c #A4A391",
"pX c #A8A893",
"aX c #ABAC95",
/* pixels */
"~.A z Z W.W.D S A A Z Z g Z D A D D D D C S D V z z h M L C V D C A W.D c H H D C A C D D R.D x A A H C A c A D R.c E.v c v j x h J R.j A h x A L P Q.D h F h x ",
"c z V V A W.A A A Z Z A m S Z V C A A C C V C C V C C D D A C R.A C C D E.D C x V L V V c z z x C A H C A A C A A R.c A A v H c C v z x z Z A A A C C z z V x l ",
"z D R.V A R.Z R.L A z C V C h V C A V C S Z C Z C A V Z C Z V W.V M V D A D C z Z C z V D x V V W.R.D A A c V h c C A C V C E.H H E.A A A x A A A C D A C j M z ",
"R.D A A D D D D A Z C A D D z z D D C c V V V C A C D C C Z c D A V S S A A V V V V V D A A z z A x C E.V V z V h z A z C H A R.A V C c C V V C A x b x H V D C ",
"R.A m V Z Z Z Z A V V C A R.V z Z A D D A V A A C V Z Z z z Z Z V C N V x x D C S V Z V m V d Z A z V A A V A D V z z h z D v c A c z C D L C z z z H b !.c S H ",
"A z V d V V V V A C h z z h h A V A V z z A C z z R.A c C A A Z V Z V V A D D C D V V S V Z m z C A z l V i V C j V C z z D c W.A c A D V C V z C h x H H h H F ",
"l a a m d p m V C Z z C V h C A V c Z V Z R.A V V A A z A C Z Z D R.A V V V C S S S D V V m m m C C V V Z h V z V V M F V z z A D z H c V M h z A D c c Q.C D L ",
"a V a a Z d V Z V c V C V A c z z A Z Z z Z Z V A V A Z A c C W.A Z z V S V m V V V d z V V C V V h V A V h z C C m V M M V C z j h g n C V S V C A z z c z x C ",
"d i d d d d s R.c V C c A A c z h Z Z V z Z m V C c A A c c D C S C A A A D S Q S V V V D Z E.V i a z p h h z h V M h M K F F F S V x C x j m h h h x z C h M h ",
"a i Z d c c c d c c z z A A A a Z Z V V z V Z A A z A E.z Z E.D D S Q ).[.}.oXoXoX{.[._.Q D L A z A z h i h p p m j z C L L n S F F h g z C z h z z z A c x C F ",
"Z Z Z V c d s R.A c v l V R.W.Z A R.c v z V z D A A A A D P ~.Q _.{.oX3XqXtXrXiXiXiXiXtXoX.X[./.C A x V V D z h g h x h V F g j h C V h A c D A A c c x C C D P ",
"D a i c R.Z R.R.c s c a z c z A z A Z A h A z c c c V L ).}.oXoX3X0XqXqXqXqXqXwXiXiXqX8X8X9X8X|.Q A C z h C A C x M x D H D C F A z z v x C h l C z A z A x C P ",
"D a h Z c c c d z d V z i d z R.c v l A z d v c A A C :.XX<X8XqXwXqX0X0X0X8X6X7X9X0X6X>X6X6XN.;X[.S S h a z V V C h z D D x v C x A E.H A H m a z A c c x H C A ",
"a a z a c v R.s z z A c R.c R.c c A A v c c R.R.A l Z ,.g.x.OXtXiXiXwXqX0X8X6X6X3X6X>XOXOXm.b.N.XX,.m z h V V V m z C A v z C x C C c H A C z C A D A x z H P z ",
"z R.z z l z z R.c c c c A c d c c c c z c c c c R.c A ,.p.f.m.>X6X8XqXwXwX0X0X6X>X:Xm.f.p.p.x.N.;XXX:.L z A C A C V z A a a V l z W.c x c x i d d z z x D A C h ",
"c c d Z z R.A R.A Z A A Z R.R.R.c c c h c c c R.A A Q u.l.f.l.l.f.f.l.M.6X0X8XN.m.OXx.r.r.l.c.N.;X:XXX:.A V h z C V l z z p A Z A A z c x c c a Z a z z h h i e ",
"z a Z a a Z Z z x D v R.R.R.A c c A R.c v v x C W W ,.g.g.p.f.p.r.e.0.e.f.b.c.h.c.M.c.s.t.l.z.n.;X:X:XXX`.L p a a z z l c l v !.R.W.z v A c c d V d d a p p p a ",
"A a d Z a V R.R.z m x V c z c A A x v c v C ;.y.u.p.p.l.p.r.r.p.p.p.p.p.p.g.l.c.M.T.n.h.s.f.l.n.OX:X<X6XOX}.[.K A x v c v v c R.c W.A A R.z z m Z V a m h h h D ",
"R.z d d s z c d l h z x c D A R.z z h z C >.q.r.r.l.l.f.e.e.e.p.f.g.h.x.c.m.M.M.T.>XT.c.h.t.g.c.N.>X<X,Xb.c.3X.X/.R.c l h !.z f a Z l z c a a a V m a a m C z h ",
"d y p V z A c d A c h z R.A x x i l a V E 6.e.r.r.f.l.r.0.e.r.p.f.g.l.x.b.M.N.M.T.>XT.b.h.s.t.h.M.>X<X>Xl.s.,XeX2X[.D v l c H c Z A C z z z p h m m h h h g z j ",
"a l m h z V A z c z h h z v C x h z Z W &.#.4.0.r.l.l.r.4.0.r.r.f.f.l.x.b.M.M.N.T.>X>XT.h.t.t.t.l.T.<X,Xc.e.h.T.9X3X[.!.f l A A x z z h a z h a y a g h i h V C ",
"z M h x z h c d i f z h R.v D x V L D E Y 4 < 5 7.r.r.7.0 7.e.r.f.l.l.c.b.M.M.M.T.>X,XT.z.r.r.r.t.b.,X<XN.l.h.c.;X3X3X X).Q W.R.x x x z A A h a z V j M h h h h ",
"z V F V M h i i i R.c c z z A C D C Q T 6 4 < < 3 4.e.4.4.4.4.e.f.f.l.l.b.n.M.M.T.T.>XT.c.t.r.r.e.s.M.<X,X>XT.T.<X9XtXtX4X2XoX`.C h i D W.A A A H z V M z z V g ",
"P A V C V l a A R.E.!.E.C A H H A C N T 5 < < < R 4.e.e.4.#.4.4.7.e.p.l.z.n.n.T.T.n.T.n.h.r.0.w.r.e.s.M.T.T.,X7X8X0XqXqXqXqXqXoXQ D z Z Z z C V V h C z V h m C ",
"!.v z v A x l H v E.E.v V x C h z x B $.4.4.7.0.r.l.t.l.r.0.4.4.R #.#.%.0.p.s.f.s.s.s.s.s.s.w.w.w.e.e.f.c.n.;X;X;X>X<X8X8X8X8X8X[.D a z h j j h z z Z a Z C z z ",
"c z h x V V c c x v C j H c x D H V Q q.r.r.l.t.l.l.l.l.b.c.e.R 6 5 6 6 4.0.w.w.w.w.r.r.s.s.s.9.r.e.w.s.h.b.T.;Xn.c.b.n.OX>X<X<X}.F j C h m p h x h h i i V z z ",
"x h x D j p f z f z x h A z z A ~.W q.s.t.l.f.l.l.l.x.b.N.N.r.#.R R 6 R 4.7.5.w.w.w.r.r.s.s.s.s.r.e.e.t.g.c.M.;Xn.c.h.h.h.n.T.>XOX:.Q.D z p h i p p m a p V V p ",
"h D A h j x f z c v x l z c A A W.>.0.e.r.l.l.l.l.l.l.b.M.M.r.0.0.5.5.4.5.7.5.0.w.w.w.r.r.s.d.s.r.r.e.r.g.z.n.;Xb.h.h.f.h.n.M.;X<X[.K m h h V z m g m p a C e l ",
"j A x j g f f z h z z c v h z C P >.4.6 7.f.f.f.r.f.l.l.c.l.l.b.n.N.T.c.w.7.0.0.0.e.w.w.w.s.f.s.t.t.r.r.f.l.b.T.c.z.g.s.f.c.M.;X:X}.Q h m p h V M a p p i C z x ",
"h h z f x z i l z z z x z C P W >.6.4.5 3 4.0.0.e.e.t.l.l.l.b.M.T.,X<XM.w.5.7.0.w.e.e.w.w.t.f.s.t.l.;XM.z.z.c.M.c.f.g.s.f.h.c.T.>XOXW p p p a p g n m m h C h h ",
"z v v v A Q.x z i z l C h S ;.r.r.e.5.6 3 3 6 4.4.e.r.t.l.l.l.m.T.T.,Xb.0.7.7.0.0.e.8.5.9.r.s.s.s.l.:XyX8X;XM.n.z.t.s.s.t.h.c.M.N.>Xi.n p y p d V a a V z z V a ",
"z v Q.v z v F c l z z h C Q u.f.l.r.r.e.#.3 6 4.4.e.r.l.l.l.c.b.T.,X,Xl.0.7.7.0.0.4.< < #.q.t.f.f.t.z.9XyXqX<Xn.g.t.s.t.t.g.z.n.N.OX|.B V p i i h i h y z h y y ",
"h z z f l z z l f s h h C W r.l.l.l.l.h.t.%.#.5.0.e.r.f.l.l.c.m.N.T.T.l.0.7.7.7.4.> O @ * 6 w.f.f.e.r.;XrXqX0XOXx.p.r.r.r.f.l.b.M.;XXX;.h h a a V g h p p a p q ",
"x j f f i l x z H H z v n U p.b.b.b.b.n.b.s.8.0.0.0.e.e.r.l.x.m.N.T.M.l.0.5.7.0 > @ o O O + 4 p.p.w.w.g.8XwX0X<XM.f.r.r.r.r.l.x.n.T.;Xi.n g p h g h m V h z a a ",
"g g f x z z v v R.R.c f z U 8.c.N.N.M.b.l.t.5.4.4.4.4.5.7.p.l.m.N.N.c.h.r.0 < % + O O @ @ O # R 7.0.7.e.OXqX0X8X:Xx.p.r.e.e.f.l.b.M.T.XXN w w h h p h h e j i i ",
"g x x j l R.x z c l z x x W Y 4.s.c.h.r.w.0.4.#.R #.R R 4.4.p.x.m.c.f.f.4.% + o O O @ O @ + O ; 4.5.7.7.x.0X0X8X6Xm.p.e.w.w.f.l.z.M.M.XX,.w w p h p e h j z h h ",
"g E.v v l v H l l b v R.A K T 1 0 4.0.0.0.7.4.6 5 5 6 6 R 5 4.r.f.r.r.p.6 + o o O @ O @ @ # + @ 3 4.5.7.f.6X8X7X6X;Xf.e.0.w.r.f.x.b.c.v.i.j j e a a g u f x l D ",
"h x f x z l v v l v v R.C C I 1 5 4.4.4.0.5.#.5 4 5 4 4 4 3 3 5 4.7.e.e.3 + o o O O @ + @ @ # O > R 5.7.e.l.n.;X<X>Xf.e.7.0.r.f.h.x.d.h.k.M h f g M z g z H z v ",
"h h g z h z l R.z h l v f c t I 3 5 4.4.8.0.5.#.R 5 4 4 3 3 < 3 4.5.e.e.< o o o O @ O + @ @ $ @ O < 4.7.r.f.c.;X>X;Xl.r.0.0.e.s.g.h.s.g.i.P A x g M x c z R.v b ",
"b x x x l d s c i e f f z x n I 3 3 4.4.e.l.m.b.x.f.7.R 3 3 < 3 6 5.0.4.; o o o O O @ @ @ @ # # @ # < 7.p.f.x.n.m.M.N.M.c.g.h.l.x.x.g.s.i.n C z C j h f l x v f ",
"l z h h i i i f p g z u l F W &.5 3 4 #.5.p.M.>X>X>Xm.p.4.4 3 3 5 4.5.3 + o O O + O + @ @ @ # $ # o % 5.r.r.l.l.l.b.b.>X8X6X6X6X7X>Xn.h.i.e h h f g h h f i h i ",
"h i i i i i z z x j h u p W 8.e.e.6 3 4 R 4.0.b.>X>X>XOXc.p.7.6 5 4.6 * o o o O O + + + @ # # $ % @ @ 6 l.l.l.x.c.h.f.l.;XqXqXwXyXeX8XM.i.j F y u g x h u w a z ",
"x z i u z h i i C C x V M E #.e.r.e.6 4.4.4 3 5.l.;X>X;XOXOXM.f.4.6 > o o X o O O + @ @ # # $ $ $ # + > 7.r.b.N.n.f.r.r.f.T.8XqXeXyXpX9X<.n j g g j h j g h l z ",
"J x w i i i i i i h i g n T #.5.l.r.r.r.e.5 < 3 4.l.>X>X>X>XOXN.f.3 + X X X o O + + + @ # # # $ % # o > 6 4.f.T.M.t.e.e.e.e.z.<X4XyXaXuX[.g h h f u f x h f f E.",
"z f f l i f z h i m p e n I 4 4.s.h.h.l.g.6.< < 3 4.c.>X;X;X;XN.l.< . X X X O O O + + @ @ # # $ % $ @ $ 3 3 6 r.h.e.0.0.0.0.s.;X4XqXpXaX Xm M f f f x j j h i h ",
"j M c z h z C h z R.z a p r 3 5 8.r.f.h.x.f.#.< < 3 0.m.N.b.c.z.e.>   X X o o O O + + @ @ # $ $ $ $ @ $ 3 3 3 3 %.0.0.0.0.7.s.T.<X9XpXaX5XF P j z z j j F h z f ",
"x h h z g j C g g h V V e t 1 0 5.w.r.g.l.b.g.#.< < #.e.f.f.h.d.#.O . X X o O O O + + @ @ # # $ % $ @ @ > 3 < < 0 0.7.0.7.4.s.T.<X9XyXaXtX~.D j i h x g w i z z ",
"z f g h f g x h a d A h M W &.4.7.0.r.g.l.b.M.e.< < R 0.r.p.h.q.%   . X X X o O O + @ @ @ @ # $ % $ @ o % < < < 5 4.0.7.7.5.f.M.<X8XtXiX2XS z h p i C C i c f x ",
"f g z j h h h l V C z S ;.d.g.p.r.t.s.h.z.z.h.s.5.5 4.e.s.h.w.< o     X X o o O O + + + @ @ @ $ $ $ @ O $ < 6 6 4.4.7.5.4.5.f.m.;X8XqXtX{.z h i y x C h i C h z ",
"q g y u y p h h n M W >.d.h.h.g.h.l.l.l.c.c.r.t.f.e.e.h.b.n.0.#     X X X o o O + + @ @ @ @ @ $ $ % @ + $ R r.l.f.r.7.4.4.5.g.b.;X1X9X4X).z V y h h e y q z A a ",
"n p h h h z V V N t T %.w.r.f.f.s.f.h.z.b.n.s.5.e.l.c.M.M.b.0.@ . X   X X o o O O + + @ @ @ @ $ $ $ @ + $ 7.c.c.b.x.r.5.5.r.b.>X<X<X8X.XQ.z A p e z i p w i h z ",
"M g h h z x n n U T 1 1 4 #.0.e.t.t.h.l.c.M.c.4.#.t.n.n.n.h.q.$ X .   X   o O O O + + @ @ @ $ $ $ % # + # 4.b.N.N.l.f.e.f.;X8X0X8X8X3X[.z l Z z j c z z i y h A ",
"A x p h h S n &.Y 4 < < < 3 4.0.w.r.t.h.c.M.M.r.5 0.x.c.b.g.0.$   X   X   o o O O + + + @ @ $ @ $ $ # + @ > 4.l.f.r.e.r.l.7XwXqX0X8X6XOXi.G z x z l h i l i f C ",
"h z h p V N &.%.Y 4 < < < 4 4.0.0.0.0.t.l.n.T.z.#.5.h.x.l.g.%.O . . . X X o o O O + + @ @ @ $ $ $ % $ @ + + > 4.7.0.e.r.r.x.6X0X9X8X6X:X;X|.<./.C h c c z h h z ",
"z c c z V W 8.#.6 4 < < < 6 5.5.%.4.7.w.h.n.T.n.8.4.h.c.c.f., o X . X X   o O O O + + @ @ $ @ $ $ % $ @ + + $ 3 4.7.r.r.e.e.r.m.<X>X>XT.v.M.:X|.`.D z z c l z x ",
"F H F H K 6.6.#.4 4 < < < 6 4.#.#.4.8.t.l.c.M.M.p.8.OXqX8Xd.* .   . X X o o O O + + + @ @ @ $ $ $ % $ # @ @ @ > #.0.f.r.e.7.7.e.h.b.m.b.M.:X1X9X2X<.V a l l c C ",
"C C h m ;.9.%.Y 5 < < < < 6 #.5 #.4.r.g.z.c.M.T.h.g.8XqX<Xb., X . X X X X o o O O + @ + @ @ $ $ $ % % $ @ + + & 5 e.s.r.0.7.5.7.g.c.n.T.,X:X:X4XyX2X`.K i u f u ",
"g C z h +.9.%.5 4 1 < < < 1 R 0 4.w.r.f.h.z.M.T.b.f.g.f.h.T.9.+ . . . . X o O + + + @ @ @ $ @ $ $ % % % $ @ @ $ 5 r.s.w.0.5.4.5.g.c.n.M.M.a.L.T.4X4X-X,.i w f z ",
"C c H f ! +.$.5 4 < < < < 6 6 4.0.e.r.r.h.z.b.M.b.8.5 2 8.n.n., X X X X o o + + O + + + @ @ $ $ % % & & $ @ $ $ 4.d.s.9.9.8.*.8.j.j.z.c.a.7 ~ F.Y.Y.Y.K.z z v z ",
"W.h f u ^ ~ ! O.2 2 2 2 0 $.O.O.*.@.@.-.-.3.3.a.L.-.+.+.@.3.j.+.= = 7 = - - : = = 8 8 8 8 8 8 8 8 9 9 9 9 9 9 9 -.3.1.3.1.=.1.L.L.L.L.L.( 7 ~ B.I.U.U.$XH C H c ",
"/.j j g / / / ^ _ ( ( ) ( ( ) _ ^ / B.B.C.C.A.A.K.K.G.C.C.F.C.' ~ ~ ` B.' ' ` ' ' ' ' ' ' ' =.=.' ' =.=.F.B.F.F.G.K.K.K.I.P.U.%X%X&X&XK.F.F.G.$X=X=X=X*XE.x z z ",
"H x x h k ] [ [ [  . . ./ / ....B.V.Z.Z.Z.Z.A.A.A.A.A.A.A.A.C.B.~ 7 B.Z.A.S.S.J.S.P.P.J.J.J.P.P.I.I.I.I.I.I.U.I.U.&X=X$XU.#X#X*X*X*X*X@X@X+X+X+X].].'./.R.A A h ",
"z a C z h x b x j b b b k k } ] ] ] { { { { { X.X.X.X.V.C.C.C.' B.^ ` B.A.S.D.D.D.P.P.P.#X%X%X=X*X$XI.I.@X@X+X+X2.].'.o.| | (.(.| } G } /.^.} E.H F D x A A R.A ",
"c u z v z l c l i z A x z z A D z f z j x b x x j F P G } { { X.=.C.C.A.A.D.D.D.D.#X%X%X%X%X%X*XH.2.o.| } G J F Q.A b j z v !.v v x x c R.c v v c z A z A c A C ",
"Z l c c z v v z z h i V A A z z v c z z v x v x C z c x C b j F } } o.2.V.H.K.S.+X@X+XS.+X].o.} J b v h H x v c c x A x c z v E.c h z c A v v A z D z a z d h z ",
"A z l s h z z z d z z z z D A x D R.z x h h x x j j x D C x F V A b A F Q.} } } } } ^.b v v R.c H z x h x c A F A A x x A l h z C l A R.c z z c c s i i z h z A ",
"R.x z R.c z V A h c A A E.A R.A A R.v c h z l A z c z A A z V h z c F H A J A c E.v R.f h x v x c z A x h c l h x h F A z h z x z h A V z x c z z z z c d V z A ",
"c c c v c c A c A A A A x v c z x z v c z z V V h z i a z z V i z x z z x W.E.W.^.R.R.l x x c v v c c x C z i z z z C V h h x x j n a h x x l l c R.R.z i l d d ",
"c c c v A A R.c V V V V V R.Z V c R.z l C z l c d Z V d z V z i c A R.z z c z x R.R.E.E.v v z A c A V z V z z R.z C z h z A V z l h g z l z a z a l c v z z z z ",
"i c z v A c c c a a z A Z d i d R.R.z c R.x d c Z V z d z a z z A z c l l d z c l v v c E.v H v z A h C z V V Z z z C z C C D A V z h l z C g z c c v v R.c A E.",
"u l z z z A z c c z m c c z z z c R.c A A A c c Z Z A z Z V V C A C z z c z d a v Q.H R.v z f f i l z z z v c c c z C C A c E.H F A b v A v c H c x A c v v C H ",
"z Z D c z z d d z c y i d z z Z c l c L C Z Z A Z M C Z R.A C A c z C V c c R.c v v x z R.z A c z V x v v R.c c x H H H W.v c H C V z h A H C h b v !.E.b z x z ",
"z d z c z z z c c c z d a A C A A c Z V d Z Z Z Z C A V A A A V A A A A Z c c Z v v R.v R.Z E.A m M S z H z z V H H x Q.Q.Q.F W.F C H D F F c c H v H H H C A F ",
"d a z V C z z C D R.A c Z A L R.Z V V V V Z A S Z S V A P W.R.z h m S V d Z R.A c E.!.!.!.A A z A A A C A h C x A c C V C C M F j C A x C C A C H A H H A D C x ",
"A y i a V z W.A c Z Z R.z Z A A z Z V A V Z Z C V A V Z x A W.Z V z Z Z Z Z Z A C A A A R.c z C c z A v A z x V z m A C C J P F n v C V C A z z h x H H C J H C ",
"Z l z h z z A z z Z R.c V z Z V d c Z V a m V m V V V V h Z V A ~.A D ~.A A A Z x A R.z a D W.Z c z A z H z C z C C x H z E.M V x A H x h V h h C M g h j C A H ",
"A z Z z Z V Z z Z Z Z V A V V C z z m V z A V V C V C m z Z S A L S V A V V x A W.R.V z V A A A R.R.v z A Z z V H C j x x v g x H x f z x m C C A D h V x x A C ",
"A d a d V V m V V c V a h V z D V Z V V h z V V h V V V h V C V C C Z A D A A A D A V A Z W.R.A R.E.R.c z Z A R.W.C W.c H v C A A c D A A z z V x H D z A C c C ",
"V Z Z Z Z A V A A c d z a c Z S Z A Z z h A Z Z z z C V a m Z S h V z D C A A D D A W.L W.D R.W.A A A E.R.c z E.v H c h x z i D E.v c z z z V h C A A z D D A Q.",
"W.Z R.R.W.A L !.R.Z Z D W.V A z V V z V D z V a Z V V V V V A C h m m A V A H E.H D A A Z V z C V A A A E.C c D A W.A z z m a V E.R.A h R.J L C C A x z h z j V "
};
