/* XPM */
static char *result[] = {
/* columns rows colors chars-per-pixel */
"80 80 256 2 ",
"   c #010E02",
".  c #011303",
"X  c #011C03",
"o  c #021D0A",
"O  c #09190B",
"+  c #181910",
"@  c #241D15",
"#  c #012303",
"$  c #012B04",
"%  c #02240A",
"&  c #012B0B",
"*  c #0D290C",
"=  c #033404",
"-  c #03330B",
";  c #043B0D",
":  c #083A08",
">  c #062911",
",  c #063912",
"<  c #163311",
"1  c #2A2518",
"2  c #2C371B",
"3  c #1F3A21",
"4  c #342C22",
"5  c #2B3324",
"6  c #373529",
"7  c #3C3B34",
"8  c #433C32",
"9  c #074507",
"0  c #0A440D",
"q  c #0C4D0D",
"w  c #144C09",
"e  c #0D530B",
"r  c #0C5609",
"t  c #1D5502",
"y  c #165908",
"u  c #0A4814",
"i  c #174A16",
"p  c #0E5514",
"a  c #165814",
"s  c #265903",
"d  c #2B510E",
"f  c #285714",
"g  c #166204",
"h  c #1B6506",
"j  c #1C6B06",
"k  c #17670B",
"l  c #1C650A",
"z  c #1E6B0A",
"x  c #1E7106",
"c  c #1E720A",
"v  c #196612",
"b  c #1C6413",
"n  c #176D16",
"m  c #296906",
"M  c #22650B",
"N  c #226D0C",
"B  c #346A05",
"V  c #217306",
"C  c #2B7603",
"Z  c #24730C",
"A  c #29740E",
"S  c #257A0C",
"D  c #2A7B0E",
"F  c #337502",
"G  c #347A01",
"H  c #387805",
"J  c #256C11",
"K  c #296E13",
"L  c #276718",
"P  c #366A18",
"I  c #257411",
"U  c #2B7512",
"Y  c #267A12",
"T  c #2C7B12",
"R  c #2B761A",
"E  c #327515",
"W  c #327C14",
"Q  c #397719",
"!  c #337C1A",
"~  c #06582A",
"^  c #125427",
"/  c #065933",
"(  c #334C2D",
")  c #15672A",
"_  c #146D2C",
"`  c #066639",
"'  c #156B38",
"]  c #1A7538",
"[  c #287629",
"{  c #397926",
"}  c #2E6D30",
"|  c #27783A",
" . c #4A700E",
".. c #5E6317",
"X. c #6F7301",
"o. c #464638",
"O. c #4D4A3E",
"+. c #4D5438",
"@. c #4A6836",
"#. c #477734",
"$. c #4E7230",
"%. c #1E6844",
"&. c #484943",
"*. c #4C4C43",
"=. c #524E43",
"-. c #4E5447",
";. c #525145",
":. c #52544B",
">. c #59574B",
",. c #4F5252",
"<. c #545B53",
"1. c #565A55",
"2. c #5C5D54",
"3. c #625A4F",
"4. c #635D55",
"5. c #546E47",
"6. c #596355",
"7. c #5B635A",
"8. c #6A734F",
"9. c #63645B",
"0. c #666559",
"q. c #67785A",
"w. c #5D6A63",
"e. c #646865",
"r. c #656B64",
"t. c #6B6C63",
"y. c #6C6E69",
"u. c #736B63",
"i. c #6C7565",
"p. c #66716B",
"a. c #6D736C",
"s. c #73746D",
"d. c #79766B",
"f. c #6A7571",
"g. c #737771",
"h. c #747B74",
"j. c #7A7C77",
"k. c #747D7A",
"l. c #816B01",
"z. c #81786F",
"x. c #837D75",
"c. c #28830A",
"v. c #2B820E",
"b. c #3C8402",
"n. c #3E8C01",
"m. c #378509",
"M. c #3B9105",
"N. c #2D8213",
"B. c #2C8315",
"V. c #328315",
"C. c #378A17",
"Z. c #34831A",
"A. c #3A841C",
"S. c #3A8624",
"D. c #3F9B26",
"F. c #2B833A",
"G. c #36883B",
"H. c #3B9239",
"J. c #428B02",
"K. c #478806",
"L. c #4B8B01",
"P. c #518A05",
"I. c #469602",
"U. c #569905",
"Y. c #458816",
"T. c #4E8F19",
"R. c #6B8E05",
"E. c #4EA703",
"W. c #58A606",
"Q. c #54AB03",
"!. c #56AB0A",
"~. c #64A707",
"^. c #63AA01",
"/. c #69B308",
"(. c #458727",
"). c #4D9027",
"_. c #549A29",
"`. c #478936",
"'. c #548536",
"]. c #47953B",
"[. c #549A3B",
"{. c #679836",
"}. c #51A32A",
"|. c #5AA43A",
" X c #64A93A",
".X c #6DB138",
"XX c #75C505",
"oX c #7ED505",
"OX c #7DC23E",
"+X c #348B46",
"@X c #38AB63",
"#X c #508D47",
"$X c #479843",
"%X c #6A8E56",
"&X c #59A548",
"*X c #4EA956",
"=X c #65AA44",
"-X c #6CB546",
";X c #78BB45",
":X c #74B156",
">X c #728C69",
",X c #76817C",
"<X c #7B847D",
"1X c #768978",
"2X c #5DB668",
"3X c #67A968",
"4X c #7CC246",
"5X c #77C252",
"6X c #70C968",
"7X c #918F08",
"8X c #82BF39",
"9X c #87C90E",
"0X c #83D605",
"qX c #83C23F",
"wX c #819C5F",
"eX c #83BA4D",
"rX c #86847B",
"tX c #869273",
"yX c #90A879",
"uX c #8DCC54",
"iX c #92D46A",
"pX c #A2D56B",
"aX c #A6E66C",
"sX c #768482",
"dX c #7A8684",
"fX c #7C8A87",
"gX c #788C88",
"hX c #878A85",
"jX c #928D86",
"kX c #88938C",
"lX c #95928B",
"zX c #979889",
"xX c #8C8C92",
"cX c #8B9593",
"vX c #8A9896",
"bX c #999994",
"nX c #949D9C",
"mX c #A29F98",
"MX c #95A88A",
"NX c #98A39B",
"BX c #ACAE96",
"VX c #A8AB9A",
"CX c #989EA3",
"ZX c #9AA4A4",
"AX c #9BA7A7",
"SX c #A5ACA9",
"DX c #B4ACA4",
"FX c #AAB2AD",
"GX c #A8B4B3",
"HX c #AAB4B5",
"JX c #B3BDBD",
"KX c #C2BBB3",
"LX c #AAC6A9",
"PX c #BAC5C4",
"IX c #C8D3D3",
"UX c #EDF1E9",
/* pixels */
"N.v.M z S c S c Z Y U c g c.Z S Y V j j z N z N.I Z D x V.D D Z D D N z z Z ! B.S U W U U D D Z V.U W W Z.m D ! B.U M N Z T S U C.S S S z j V.A z Z N D T W I S.",
"Z K B.Z C.z S j g y N I U S U U I Z S R z D D S T U T S S ! Z.V.V S z N.Y V.U S U S V.T A Z W D A.z D V.W A.U T U A N Z N I E U U h A.R U Y S A M T W l N.U N N ",
"N.j c Z Z Z B.I Z T c N l B.S j N U S z Z N j Z D W Y T N.C.B.N.Z D Z.T N c.S Z ! S S N.Z D S Y Z D R Y K DX@.S.B '.$.! l Z j V A T N W V.h Y N D U K V.V.W E Q ",
"U Z Y D U l Z B.I T S A.Y S S Z.h T S Y Y Z c Z W C.E j D j Z z D j V Z T v.N D W V.Z I N m S S D v Y I VX).P.~.P.L.~.F P ! l A I E v.A K Z A U N T l Z S R M N ",
"D S z Z S Z v.c T Z N K A S I U I M T Z T T Z B.S j z Z x Z.z Z Y N T U U ! A T I D Z W z U V N.N A z #.:XP.~.^.W.^./.L. .>XA W Q Z.A T N W U N S D M V.U N U T ",
"T N T T T S c S R Z Z B.I S I h v.D z U K S V.T I D D U D N.Y U T h T Z j N S h y Z S S c.D z A Z W U R  .^.~.0X7X^.XXW.U.P.%XW ! U N l Z U c N U Z Z V.Z S W Q ",
"j Z.I S j C.c R N Z Z z c l Z S M Y S V N.D C N.D V.l N Z z M Z Z U A U T Z A D D U V.T Z.Z W V.A T K B U.^./.0X0X0X0X0X^.L.$.E N U M z T S B.T Z Z Y Z U W R Q ",
"z l j I Z.S Y Y z Z S S S Y C.U I N Z V.V T U U Z V Z S U D S S A W V.A W y W I U Z V.T W ! U U A `.BXB P.^.XX0X9X0X9X7X^.P.L.'.! Z I D B.T Y Y K S Z Z.Z h J E ",
"z Z N.U N.v.S S c I l c Z v.S Z n Y Y R B.Y Y B.Z.Z V.N.N.N.T Z Y B.N R J I R x U U N y N S N S N 3XDXU.^./.R.^././.XX^.^.L.yXDX{ t V.Z V Q I y D N Z.U W D K N ",
"c N.Z N.D v.D S v.M R S I B.I B.B.Y Y Y B.v.B.S S U I N Z V.R U Z S U j N c S j I W N W I N Z N h >XDXB ~.^.^.I.0X0X0X0X~.~.DXV.W A T W v.N.K W A N A D U A I W ",
"z z Z N.D c.S S c S B.T Y Y c Y T B.D Y B.T S S V.c N J S S S I R z N.U Z j A A N K T S W '.ZXAXSXSXq.F F P.^.9X0X7XQ.^.~.K.BXD W A M F Z S Z U S Z W D T N Z.V.",
"U N Z.c.N.T V.U Y Y I n I Y n Y S Y x S Y B.c.Z Z MX&XD f MX&XMXZ T I T N l z j Z S S bXCXZXAXAXSXdXd.$.B B P.U.^.^./.L. .yX>.rXrXjXjXjXlXlX#.j g j S N Z N.N h ",
"Y S g B.S B.Y c.Y Y T Y Y Y c R z Z C.c.S N.S B.MXy C B F F B t s VX%XY Y W R N T nXnXnXZXZXSXAXAXk.g.g.:.B B L.~.~.P.R.>.0.4.rXrXmXjXjXlXlXlXbX{ j U z j N j z ",
"y c D.x S Z V.T N.T Y S B.v l Z m.W c.v.N.v.S %X .I.G n.b.m.G b.C y BXN M W Z.kXbXnXFXZXSXNXAXAXAXSXSXg.;.&.2 B {.T.L.O.3.rXrXzXx.jXjXzXbXlXbXbXbXN.S j r l y N ",
"R z j Y j N B.v.Z K A I Y z D c.T N T S S Z V.yXG n.G n.!.b.Q.I.F G $.yXU S nXbXnXbXCXNXCXZXAXAXAXGXHXSX7.;.6 4 BXjXO.>.x.jXrXjXlXrXjXlXlXbXbXmXNXI z Z M Z N V.",
"N.Z y g S S S Z x g U D A E U Y D D S Z N S yXH n.J.n.W.X.b.W.Q.n.m.G BXA.GXHXHXHXHXHXHXSXnXSXZXAXSXSXvXj.d.8 4 u.=.8 z.x.x.rXrXjXjXhXjXlXmXmXmXd.P c l M Z U U ",
"Z Z y A D T V.S N.Z h l T z U T D x S N C.Z 8.$.G J.Q.Q.W.I.W.I.Q.J.G E i.HXHXHXHXHXHXHXHXHXGXIXIXPXHXsX,Xh.r.o.o.3.u.z.z.z.z.x.jXjXlXxXlXbXbXx.4.@.v z K M Z h ",
"V y N S N Z D Z j z T I M S ! T x U h A N t F b.n.I.Q.Q.Q.Q.E.P.X.I.J.G P xXHXJXHXHXHXHXHXHXGXHXJXHXUXdX<Xh.d.2.o.O.u.u.u.z.z.x.rXrXjXDXlXlXd.u.;.P R z T A U J ",
"Z V N j U Z Z x D S A B.Z j V T B.V N W DX>XF b.b.m.E.J.I.J.I.M.J.b.K.G G s.k.HXHXHXHXHXHXHXHXHXHXHXIXsX<Xh.hX9.o.o.0.0.u.d.z.z.x.jXhXjXKXjXu.u.o.R M l W h S Z.",
"M Z.R j h N j y N j Z D T Z T z N.N U S T @.J.J.M.X.J.J.!.n.W.Q.I.n.G H u.h.HXHXHXHXHXHXHXHXHXHXHXHXJXdX1X,Xh.s.O.8 3.z.u.u.d.z.x.rXrXjXlXu.0.4.8 A m N W R z z ",
"A T.f m E S N M V A E N.U h z V.A.Y S W T wXt K.n.n.n.J.W.W.E.Q.W.J.n.B p.HXHXHXHXHXHXHXHXHXGXHXHXHXvXfXfX,Xh.d.0.8 O.0.u.z.z.z.x.x.x.jXu.0.u.3.8 E Z Z h N Z M ",
"K j S E l S W N W V.Z D Z.T T z Z Z.I Z v.d s B b.n.n.!.E.W.P.J.n.J.C H t.GXHXHXHXHXHXHXHXJXPXJXGXGXPXgXhXsX,Xg.4.=.8 0.4.u.u.z.x.x.x.u.4.4.u.8 8 A N l A g M U ",
"T v.M Z Z.S D T E v.v.U I N V.M j (.S.k.7.d t t B C J.n.n.G K.J.G b.E $.t.HXHXHXHXJXHXAXAXAXAXZXCXCXCXnXf.1X<X9.u.O.&.3.4.0.u.z.z.z.3.0.4.0.=.1 eXD W Z T K j z ",
"D N M N U T D S N W T h Z.A U W A.}.@.e.-.&.-.t t t H b.b.J.J.b.G $.4.0.y.FXNXfXkXkXkXfX<.>.t.a.e.gXvX<.:.:.t.r.9.3.8 2.0.x.x.jXCXx.3.eX} >.8 1 .XK.Z g g L V N ",
"g U D A N W Z S Z j =X{ bXV Z Y uX;XY.>.kXfX1.,.d d t H H b.J.F Q DX1.9.2.t.d.s.2.2.2.2.t.4.a.a.f.f.<.:.;.=.=.*.4.7.xXkXfXr.7.ZXCXCX7.( [.i 4 d =Xm.j j %XN Z.y ",
"m ! Z U D A N A Z U :X&Xb VXW D ;X;XC.+.:.j.kXr.t.y.d t  .E F H L MX@.=.<.>.:.O.2.2.6.4.9.7.a.g.h.g.k.6.<.;.O.*.cXvXcXcXAXxXq.C.} NXfX2.].p < ].].N S DXy :XA h ",
"U U Q Q #.C C.V.m S &X].q i DX`.|.(.C -.>.cXHXHXMXnXi.5.P 4.@.BXDX#.0.t.t.a.g.g.j.a.g.7.9.s.g.h.h.k.k.,X7.<.-.*.CXnXvXvXcXCXy.uX;Xr 1Xe.G.| < [ G.9 T 5.C.{.A N ",
"A R R eX).r %X`.S T I `.$Xu SXZ.[.[.U -.0.JXGX:X'.u.u.y.y.d.O.O.0.u.t.y.i.a.a.i.s.a.a.f.cXh.h.k.k.k.,X,XsX7.<.,.CXnXnXvX7.y.y.t.*X#X- y.+X] > 0 $ * , r }.l C F ",
"W N A V.eX;Xa e DXD Y F.G.u VXR | 9 w >.h.%X}.C.h.1XNXSX<X0.0.rXt.t.i.a.<Xa.s.h.g.g.g.k.HXCXGXcX,X,XsXsXsXfXw.<.*.a.cXe.tX} Z M a 0 ~   u ' O # . X $ G.l y Y.}.",
"T T V.Z eX-X`.9 ; VX{ ] ) = rXe G.= : -.e K S.{.h.GXHXNXrX0.0.t.t.y.a.g.s.h.g.k.k.k.k.g.SXZXZXZXAXZXsXdXsXgXsXw.o.7.e.PXMXpX.X(.r 9 - # ( # o.+ X X u K K D Y.yX",
"Z D N.M A { $XF.& X DX] ] $ jX: : X # = q a =Xh.hXHXFX%XrXo.>.t.y.u.a.f.h.g.k.fXk.k.k.k.AXZXZXZXZXZXs.y.y.h.fXf.p.&.7.p.GXZXr.4X=X`.= & i.7 +.DX# # 0 9 J T.OXy ",
"N { j N l v p & ~ O DXu / X DX$     X # $ H.%Xg.HX'.Y.%Xd.;.8 =.a.a.h.f.h.k.,X,XsXsXdXvXZXZXZXZXZXAXZXs.a.t.t.7.<.6 s.&.&.,.1X>X&XG.| u a.7.>X>X>.# 0 9 -X.XiX9 ",
"-X_.M m v r q 9 - %   * - . DX*   X X # ] i.q.{ m.Y.;Xh.jXO.o.O.&.s.g.k.k.k.sXsXgXgXsXIXCXCXZXZXAXZXZXg.y.y.t.9.4.;.6 ( P u ; & . i e $ i.@.8.BX< ; [ ]. XiXh j ",
"N M eXqXY.).= u ; $ * VX%   DXUX( X , : = r J W V 4XuXh.-.*.O.*.O.7 j.k.,XsXsXsXgXgXfXCXAXAXZXZXZXCXZXCXs.y.t.t.9.2.6 >.6X$X] ~ = X o r.>X+.8.BX7 ; a g U w d g ",
"D W Z { ;X&X6X{ : & % q.W U yXE   , # ; L a l h ;XeX$.&.&.*.*.*.*.=.( j.sXsXgXgXgXgXfXAXCXZXCXZXZXk.ZXZXf.s.y.t.4.;.o.O.6 7 f y e 9 : >   6 UXMX* $ = = 9 r N C.",
"m v.S Z [.|.D.#XF.} . %XV.8.8.#XO.o # ; 0 e [. X XaX7 -.o.;.-.&.-.*.=.,.p.dXgXxXxXcXHXy.CXAXAXZXZXbXy.CX'.y.t.9.>.8 4 @ 6 E R P p : $ ' #   O DX- r v &X;X;XuX4X",
"S S.i , * < *XG.| ] o zXwXwXd A.K . # = L ].).-X.Xq.j.:.o.;.;.:.:.-.-.r.p.,.fXvXvXvXZXy.a.NXMXZXZXCXt.u. X#.7.2.7 4 o.$.@.eX-X`.$X].2X% / % X o o i a Z A.= Z D ",
"l a 0 - # X X $ p , #.R +.+.>X%X#.% q v H.[ |.5X'.g.FX9.o.;.:.:.:.>.,.r.p.p.p.cXnXnXZXp.t.r.S MXZXnXy.y.aXT @.8 o.6 o. X1 -.o.( ( - % ` kX% $ o / ' ) : i $ 0 Z ",
"=X+X_ ] ~ , % o # kXDX%X@.5.#X#.Z % 0 y L R W h w f vXi.*.7.-.:.<.<.,.p.p.a.f.e.k.AXAXy.y.i.=Xl NXj.y.y.uXE Z ( o.2 uXD 1 1 5 5 3 i ` ` & - ^ o ) ] $X+Xe ] G.A.",
"! J { a a q 0 0 ; & . . + tX$.Q >Xo $ a y y = 9 Z U C $.o.-.<.<.,.<.<.p.p.f.f.-.:.>XNXy.y.p.G.y p y.y.y.aXm g K 8 uX8Xz 1 7 4 6 : ' _ ' < ; ' ) % ' 2X$X].{ D M ",
"D N E M a 9 q 0 , - . o VX+ R >XkX- p r n (.|.-X_.B m C.T.5 <.<.<.<.6.p.p.f.f.,.:.q.K.kXt.y.*X| 0 5.i.w.uX=Xv v } =X;Xl @ 4 ,.a #X*XgX7.^ , F.[ & / N { -XQ V l ",
"A.v.D m y a a 0 % | , & . o ^ e.. , p y R &X X;X;XiXaXuX4XK.o.1.1.6.p.p.p.a.f.7.a.y.;Xv.{ t.*X` - - r.iX_.-Xv k f #X[ a 6 6 +.w.f.AXCXe.5.i ].L = ) t M D 4XU h ",
"_. X=X=X$X|.{ G.| u % / X > ~ . % % e r J m V.m.(.yX7.r.s.*.1.1.7.<.r.p.p.f.p.w.u.i.5XV R L a ` ~ X o.5X=X=Xp e 0 *Xw 0 8 + 7 a.%X%XgXvX} l :Xo.p q t N D :XZ A.",
"C V (.2X-XH.$X2X; > ` 1X& % ~ o % ~ X : p : % % - , 6.,XbX9.2.6.<.6.r.p.p.p.f.e.u.i.6X! J b a u ` X f `.S.[.0 q - ] , O @ @ 6 %X X#XgXkXG A F A B g f t Z A h N ",
"S.Z Z N Y z L > & ` ` MX% > ` . ~ ` ' / ) ; ; / - 0 y -.h.s.=.6.7.<.w.p.p.p.f.sX,.o.6X&Xl a e q $ . [ ].].H.0 u & X o @ b Z '.&X=X%XsXP K.G I.J.b.V.s { h l A V ",
"h N T S j Z - $ ` ` 2X, - & ' o ; ] ] +XF.[ q _ n G.L B.@.s.o.7.f.&.&.<.p.w.p.1.&.&.6X|.b a e 9 - o b _ [ } ; - % o + T y 2X$X].r 1X5.b.I.E.J.I.I.W.b.F h U h M ",
"N N V z T < ; ) ` ` B ; ; , ] ) # / 2X' G.].].L hXPXi.9.6.t.2.7.,X7.*.+.T ( ( 7 o.&.5.[ $Xq i 0 , o a | | ; & %   d N | | G.].q y T.n.K.Q.X.X.Q.Q.E.n.F Q m J j ",
"D Z Z D K e ^ ' +XI  .; ; 0 ' *X# , / %XiX$X|.M tXFXPXfXk.9.0.9.7.r.r.&.#.M a i , i &.6X].p 0 ; : o # 0 | X # < N , ] ] ] G.0 q #Xb.J.E.Q.Q.Q.Q.Q.W.n.F F P V Z ",
"Z j M N a `.+XH.L.X.X.w q ^ G.*X% # / h.FX3X4X.XA.<Xg.s.k.r.0.;.9.e.e.-.7 *X+Xu , - & - +X+X# - , . 3 o %   6 Z % = ~ _ ^ = 0 w s m B !.E.!.E.!.U.l.J.b.G F P U ",
"m N y {.:Xs P.^.0XoXoXh e G.+Xf > : +X>XhXJXLX4XC.tXi.s.d.7.0.7 0.e.:.,.&.7 *X+X| u & % - $X] X * . ( o.X V.#XC o % $ # # * m : m Q  .U.T.!.K.n.I.I.J.J.F G A Z ",
"N y z l P P.U.^.oX9X!.XXv [ 2X6.0 , ^ #Xj.JXJXyX).;.s.g.d.h.9.=.3.-.-.-.,.&.5 *X' ` %.` ^ % % ^ o   *.( '.8.U E     < U M u v &X&X_..XeX.XE.I.I.Q.Q.J.J.F U A z ",
"N U N j B ^.^.R.!.XX/.0Xl Z.+.6.1Xp y 5.h.HXJXJXeX;.d.g.j.,X0.4.6 7 *.-.*.o.&.&.@X] ` ` / ` / > o O { Z.P #.Q N Z U V # ; 9 G.$XS.=X;XF C.Q.Q.!.Q.Q.J.b.F S y j ",
"M h z l P L.W.^.^.0X0XW./.}. .y.j.} w %Xg.HXFX<Xq.i.d.g.j.9.4.o.O.8 4 4 O.o.&.4 5 5 3 ( ( ( 3 O O i S @.@.M D A U m .   X # = 9 9 K A.C.!.M.Q.X.J.J.M.F G k h j ",
"M N Z M B B P.I.^.^./.R.K.!.K. .0.i.V.d.j.SXVX0.0.9.d.d.j.2.>.>.=.O.rX4 4 g P 5 5 3 , & & > > o     5 P %XN v.5.U m i O . # = 9 y K F J.J.n.K.P.n.F G  .Q N Z h ",
"Z N.N N y  .m B L.~.^.~.~.L.N s H 6.@.rXVXSX9.6.>.>.3.3.;.>.9.q.9.>.;.8 @ ( N.D.u 0 , i & > % % O   I S j 8.U W i # X X X X M j L s s m G F J.J.b.b.E S K g Z y ",
"D V.Z A m y P P  .L.P.^.P.W E s J.b.$.>.bX7.6.3.>.>.+.0.0.a.f.f.g.i.0.8 4 1 d r q ; , - & 3 - / X &.$.Z Z z . . X X , # X # : : ! I J t F H H n.G U m B.c N M Z ",
"Z T S z S A N W Q b.W K.j M F J.J.n.!.7X .$.3.>.=.>.0.t.h.f.,X,XhXh.-.o.o.i t a q ) | ' ' ` X o o O f <   & * X # $ $ q ^ & u S.H.I l U s E K H F D Y x T Z C A ",
"Z.T P ! A W W U h V M V D s H J.n.W.E.E.E.Q.W.E.P.p.0.u.1XsXsXdX<X<XhXrX@.{ &X].H.+X_ | ^ X X % o - , - o 0 e a $ , = : p | a b c }.Z.U V.f I S C.z z z S N W A ",
"M ! N M N W Z M A Z Z Z w F F J.E.Q.Q.E.W.Q.X.R.K.+.0.1XkXvXPXnXSXcXkXhX .B { 2X6X6X$X- X - ' ` % u e n X a b F.a 0 9 p w D #X=X_.F D :X3XN Y I S l Z l S h V y ",
"V A.D B.m D c z x V U Z W F J.H J.J.M.n.J.I.E.J.J.K.r.fXvXZXSXPXvXvXcX@.m B B s d $ % % & p ' ` & r r y : a M +X[.b e f l { S U D A (.Q  .I N h c M N J z A R g ",
"S v.D N U U D N Z A m h Q K.b.J.X.M.n.!.I.E.E.W.J.F q.fXvXAXHXCXNXvXhX$.m B s s : & $ % ` 2X] ] - v v r b i z $X=X=X].N U V { Z V.Z E B.I Z.Z W W Z Z j g c S x ",
"U D N V.! l D S T D Z D f s J.J.J.J.n.Q.Q.b.W.W.b.n.B hXvXAXGXAXNXvX5.H s s B s 0 : ; ` ) $X) | ; R K ].S.# R |. X_..X4XA v.C.{ N.x A N l m W D I T V.N.V.A S v.",
"f N V U h j W m C.S z D s t m G b.J.Q.W.W.K.K.J.J.F B Z.I T NXSXZXgXf s B s m y p ) ] n B *XF.| u = E |. X{ = L |.;XOX_.uX.XM.Y.(.c Z N.Z S U N.z Z Z A A.S W N ",
"t T.E T ! E h y h ! K Z d t t t F b.n.n.b.K.J.F F { I Q N I S y z y s m J.!.h L ].H.B .. .&X$XG.u - P _.;X|.w 9 { A.-XaXqX.XeX;X X'.V.A.D Z A Z A.T S M V N V.S ",
"T V.I z j l S y A g z M U S { s t F G G J.J.n.F U A T R h N J y N P C J.G C..XJ.J.b.H H m [.].{ p / > (.uX4Xr Z w M Y D z S V E M I ! S Z.D V T Z.D U V W ! x V ",
"Z h T Z z z Y Z z S D S S z Z U f t B H G J.F J Y ! N V.U N N N A P J.n.M.X.n.J.W.s F  . X&X[.v ) ' % > T.4Xy W E T v.A S l Z.A U l h Z V.D D Z S I U A T D B.T ",
"V g Z c.D U S Z c U A N T S U T Y f t P E F #.Y z c Z.V Z N h U U f m K.n.M.n.J.W.B s H pX_.K K ] +X, , f aX;XV.! A Z V j j S W B.W S S S C.T Z T N E Z v.Z.Z V.",
"Z Z S S A T V.D U Z Z N ! j I W S j Z T D V S D U V R h K T Z T B.s s M G n.n.Q.F  .B .X4XQ m d } | p P C.Y.uXM.N c.N Z S Z.W T S v.M S S.Z U D W S S Z A M Z N ",
"z B.j x g v.I S h h Z U Z R U S D D l h l V U U R D W T Z K C.U W s t t t G G m F H L.4XY.m. .J Z.$Xr A.x S qXY.A c z S I T Z z j z z A N.x S c.S S l z U T V T ",
"R z S z V c.Y Z V U U M S j Z.N.K U Z.Z D c I h m U N T A.Z l A N h U P t s F G G J.T.C.F v.A S W -XA A.S Z.pXT.T D Z D N S N.N A K B.D V.S c S W V S A N Z S D ",
"z z C.z Z D Y Z D W K S Y Z Y N.C.V.V S Z S h I Z U Z U J c y M J Z l N T f s m b.m.n.F D U S Z A (.(.S z Z Y x S A z U j N m Z Z N z S Z j T Y D S j j y g h h ",
"c v.Z Y D D U S S U D V.V.S I T h Z c.B.Z W c.J z I g z S v.x z h N Y V.T W t s Q  .F B.D Z V.x S Y D D K I h j Y N I l T E J Z M E Q S S S S N B.S B.V V S Z S ",
"Z S V.N.D ! Z.Y N.M R D N Z.Z Z z Z V D D Y D N I B.I z Y W I r S I T D N z x S D U Z N.T B.D U C.U B.T T D D B.Z I S j l N A z c y N D j S N Z g Z Z S S x Z V ",
"j c.x D Y j Z Z j Z Z Y B.z j V C.S Z Z Z.A j c.Y z z z Z z N V W N Z.l Z c S N.A D N.S Z.D N.W N N.M Z D T I V.D N U U T E R Y U N j A V U h K S S T N.V.D W V.",
"z V U Z j S S S S z K N S A Z I c Z.S U U c.Y S v.B.N.z S Z U A.S I N S N.x x j D A.T V.D c.z Z g Z T N c T U S S Z U I D D T Z.V.W D Z N.D Z W E z S D N V.V.W ",
"B.N.Z T S S S c c N M j z y S z S S Z R I Z S Y Z.I Z.Z T N.T N.S Y Z U z N.C.S T V.K Z A S V Z c Y z N I D S ! A.T K W V.D A N W r Y.A l ! U z S M U V.N A.A V ",
"N l S Y A.z Y S c c x j Z S z z l N y J N U c T T I N V.U U U E R Z Z m Z S N c l Y T Z Y j I U V.Z A D Y A.c T A Z.D Z.D ! C W R T Z c.K Z S D N S Z.D A A T E ",
"U Z I Z B.c S S B.c.D Z Y D Z.z R Y z Y R z Z U T K T Z U Y ! z S ! N.N z A Y D Y S U ! c.V.Z R N K Z R D ! K Z Z N Z l W { Q N m U A T D N W D U U ! Z A W K Z.",
"S U j Z c S Y Z N x z S D N.E T v.! Z N N Z A R N E D R Z x x I Z W Z Z Z R Y V.V.V.Z U V.N.Z C.S D Z v.S K z m N A T N C.D A.W S.U U M N A T T T U W Q T B.W U ",
"V.z I S Y Z T N.Y U h Y E D Z c U l S U z Z.U K W z U N S l C.T Y Z R Z N.z l W Z S V.V.Y S N.S l N M g U S N S c.E K K m Z.U J ! U U N Z U Y D N E E N A T Z.N "
};
